<?xml version="1.0" encoding="UTF-8"?>
<svg id="Livello_2" data-name="Livello 2" xmlns="http://www.w3.org/2000/svg" viewBox="0 0 206.73 226.77">
  <defs>
    <style>
      .cls-1 {
        fill: #4a6007;
      }
    </style>
  </defs>
  <g id="Livello_1-2" data-name="Livello 1">
    <g>
      <path class="cls-1" d="M4.96,54.86v-3.29H1.49c-.16,1.09-.28,2.2-.39,3.29h3.87Z"/>
      <path class="cls-1" d="M119.63,222.37c.88,0,1.6.7,1.64,1.57.62-.13,1.25-.27,1.88-.41.48-.11.95-.22,1.42-.33v-.83c-1.82,0-3.29-1.48-3.29-3.29h-6.59c0,1.82-1.48,3.29-3.29,3.29,0,1.82-1.48,3.29-3.29,3.29v.42c3.21-.35,6.51-.85,9.88-1.48v-.58c0-.91.74-1.65,1.65-1.65Z"/>
      <path class="cls-1" d="M155.88,95.78h-6.59c-2.73,0-4.94,2.21-4.94,4.94v6.59c0,2.73,2.21,4.94,4.94,4.94h6.59c2.73,0,4.94-2.21,4.94-4.94v-6.59c0-2.73-2.21-4.94-4.94-4.94ZM152.58,108.96c-2.73,0-4.94-2.21-4.94-4.94s2.21-4.94,4.94-4.94,4.94,2.21,4.94,4.94-2.21,4.94-4.94,4.94Z"/>
      <path class="cls-1" d="M4.96,68.04v-3.29H.5c-.04.86-.08,1.63-.13,2.29-.02.33-.05.67-.07,1h4.66Z"/>
      <path class="cls-1" d="M61.97,206.16v-6.59c0-2.73-2.21-4.94-4.94-4.94h-6.59c-2.73,0-4.94,2.21-4.94,4.94v6.59c0,2.73,2.21,4.94,4.94,4.94h6.59c2.73,0,4.94-2.21,4.94-4.94ZM48.79,202.86c0-2.73,2.21-4.94,4.94-4.94s4.94,2.21,4.94,4.94-2.21,4.94-4.94,4.94-4.94-2.21-4.94-4.94Z"/>
      <path class="cls-1" d="M19.25,172.57v-3.29h-4.13c1,2.29,2.05,4.54,3.15,6.74.31-.1.64-.15.98-.15v-3.29Z"/>
      <path class="cls-1" d="M4.96,122.14v-3.29H1.79c.32,2.46.68,4.91,1.08,7.34.57-.47,1.3-.75,2.1-.75v-3.29Z"/>
      <path class="cls-1" d="M132.89,18.62v1.65h3.29c1.82,0,3.29,1.48,3.29,3.29,1.82,0,3.29,1.48,3.29,3.29h6.59v-3.29h-4.94c-.91,0-1.65-.74-1.65-1.65s.74-1.65,1.65-1.65h4.94c1.82,0,3.29,1.48,3.29,3.29h3.29v-3.29c0-1.82,1.48-3.29,3.29-3.29v-1.51c-.47-.6-.94-1.2-1.42-1.79h-1.87v1.65c0,.91-.74,1.65-1.65,1.65s-1.65-.74-1.65-1.65v-4.94h-8.24c-.91,0-1.65-.74-1.65-1.65s.74-1.65,1.65-1.65h7.56c-1.25-1.26-2.5-2.4-3.72-3.39-.17.06-.35.09-.54.09h-4.94c0,1.82-1.48,3.29-3.29,3.29v3.29h1.65c.91,0,1.65.74,1.65,1.65s-.74,1.65-1.65,1.65h-4.94c-1.62,0-2.97-1.17-3.24-2.71l-1.38,6.04c.76.15,1.33.81,1.33,1.62ZM144.42,13.67h3.29c.91,0,1.65.74,1.65,1.65s-.74,1.65-1.65,1.65h-3.29c-.91,0-1.65-.74-1.65-1.65s.74-1.65,1.65-1.65Z"/>
      <path class="cls-1" d="M141.05,188.04h-3.29v9.88h9.88v-9.88h-6.59ZM142.7,194.63c-.91,0-1.65-.74-1.65-1.65s.74-1.65,1.65-1.65,1.65.74,1.65,1.65-.74,1.65-1.65,1.65Z"/>
      <path class="cls-1" d="M50.44,112.26h6.59c2.73,0,4.94-2.21,4.94-4.94v-6.59c0-2.73-2.21-4.94-4.94-4.94h-6.59c-2.73,0-4.94,2.21-4.94,4.94v6.59c0,2.73,2.21,4.94,4.94,4.94ZM53.74,99.08c2.73,0,4.94,2.21,4.94,4.94s-2.21,4.94-4.94,4.94-4.94-2.21-4.94-4.94,2.21-4.94,4.94-4.94Z"/>
      <path class="cls-1" d="M136.18,2.09v1.7h3.29c0-1.82,1.48-3.29,3.29-3.29v-.06c-1.5-.51-2.9-.59-4.16-.14-.11.06-.22.1-.34.14-.76.34-1.46.88-2.09,1.66Z"/>
      <path class="cls-1" d="M91.63,118.85h4.94s.08,0,.13,0c-1.55-1.37-3.25-2.91-5.07-4.6v4.6Z"/>
      <path class="cls-1" d="M96.57,122.14h-1.65v3.29h3.29c0-1.54,1.06-2.84,2.49-3.2-.78-.62-1.63-1.33-2.53-2.1.02.11.04.23.04.35,0,.91-.74,1.65-1.65,1.65Z"/>
      <polygon class="cls-1" points="114.69 105.67 114.69 102.37 112.02 102.37 111.26 105.67 111.4 105.67 114.69 105.67"/>
      <path class="cls-1" d="M132.89,30.15v-1.65c0-.91.74-1.65,1.65-1.65s1.65.74,1.65,1.65v4.94h3.29v-6.59c-1.82,0-3.29-1.48-3.29-3.29h-3.29v1.65c0,.91-.74,1.65-1.65,1.65-.82,0-1.49-.6-1.62-1.38l-1.07,4.67h4.34Z"/>
      <path class="cls-1" d="M206.72,132.32c-.09-5.68-.61-11.47-1.54-17.36-.24-.29-.39-.66-.39-1.06v-1.28c-.02-.12-.04-.25-.06-.37h-1.58c-.91,0-1.65-.74-1.65-1.65s.74-1.65,1.65-1.65h.96c-.22-1.1-.45-2.21-.7-3.32-.09.01-.17.02-.26.02-.91,0-1.65-.74-1.65-1.65v-1.65c0-.74.24-1.42.65-1.96-.22-.87-.45-1.74-.69-2.61-.17.73-.82,1.28-1.6,1.28-.91,0-1.65-.74-1.65-1.65v-3.29c0-.91.74-1.65,1.65-1.65.02,0,.04,0,.05,0-.54-1.76-1.12-3.53-1.72-5.3h-7.64v1.65c0,.91-.74,1.65-1.65,1.65s-1.65-.74-1.65-1.65v-1.65c0-1.82,1.48-3.29,3.29-3.29h3.29v-4.94c0-.59.32-1.11.79-1.4-.22-.55-.44-1.1-.67-1.66-1.05-.55-1.77-1.65-1.77-2.92v-1.3c-.29-.67-.58-1.33-.87-2h-4.07c-.91,0-1.65-.74-1.65-1.65s.74-1.65,1.65-1.65h1.65c0-.49.11-.95.3-1.37-.34-.73-.69-1.46-1.04-2.19-.26.17-.57.27-.91.27-.91,0-1.65-.74-1.65-1.65v-3.29c0-.14.02-.27.05-.4-1.33-2.62-2.71-5.23-4.15-7.84h-4.14c-.91,0-1.65-.74-1.65-1.65s.74-1.65,1.65-1.65h1.65v-1.14c-.48-.83-.96-1.66-1.45-2.49-1.09-.54-1.85-1.66-1.85-2.96v-.14c-.64-1.05-1.28-2.11-1.93-3.15h-1.36v1.65c0,.91-.74,1.65-1.65,1.65s-1.65-.74-1.65-1.65v-1.65h-1.65c-.91,0-1.65-.74-1.65-1.65s.74-1.65,1.65-1.65h1.65v-3.29h-3.29v1.65c0,.91-.74,1.65-1.65,1.65s-1.65-.74-1.65-1.65v-1.65c0-1.82,1.48-3.29,3.29-3.29v-1.65c0-.2.04-.39.1-.56-.42-.61-.84-1.23-1.28-1.85-.57.48-1.31.77-2.11.77h-3.29c0,1.82-1.48,3.29-3.29,3.29,0,1.82-1.48,3.29-3.29,3.29v3.29h1.65c.91,0,1.65.74,1.65,1.65s-.74,1.65-1.65,1.65h-1.65v3.29c0,1.82-1.48,3.29-3.29,3.29h-3.29v1.65c0,.91-.74,1.65-1.65,1.65s-1.65-.74-1.65-1.65v-1.65c0-1.82,1.48-3.29,3.29-3.29h3.29v-3.29h-1.65c-.91,0-1.65-.74-1.65-1.65s.74-1.65,1.65-1.65h1.65v-3.29h-6.59v6.59c0,1.82-1.48,3.29-3.29,3.29h-3.29c-1.82,0-3.29-1.48-3.29-3.29-1.82,0-3.29-1.48-3.29-3.29h-1.65c-.05,0-.1,0-.15,0l-.83,3.63c.27-.2.61-.33.98-.33.91,0,1.65.74,1.65,1.65s-.74,1.65-1.65,1.65c-.63,0-1.18-.36-1.46-.88l-4.37,19.07c.68.21,1.17.83,1.17,1.58v8.24h1.65c.91,0,1.65.74,1.65,1.65s-.74,1.65-1.65,1.65h-1.65c-1.82,0-3.29-1.48-3.29-3.29h-.12l-3.34,14.58c.82.1,1.45.79,1.45,1.63v1.65h1.65c.91,0,1.65.74,1.65,1.65s-.74,1.65-1.65,1.65h-1.65c-1.08,0-2.05-.52-2.65-1.33l-1.16,5.08c.32.3.52.72.52,1.19v1.65c1.82,0,3.29,1.48,3.29,3.29,1.82,0,3.29,1.48,3.29,3.29v3.29c0,1.82-1.48,3.29-3.29,3.29h-6.59v6.59h3.29v-1.65c0-.91.74-1.65,1.65-1.65s1.65.74,1.65,1.65v1.65h3.29v-3.29c0-1.82,1.48-3.29,3.29-3.29h1.65c.91,0,1.65.74,1.65,1.65s-.74,1.65-1.65,1.65h-1.65v3.29c0,1.82-1.48,3.29-3.29,3.29h-3.29v1.65c0,.91-.74,1.65-1.65,1.65s-1.65-.74-1.65-1.65v-1.65h-3.29c0,1.82-1.48,3.29-3.29,3.29,0,1.02-.46,1.93-1.19,2.53l-.16.71c-.22.28-.68.27-1.35,0-.19.04-.39.06-.6.06v3.29c0,1.82-1.48,3.29-3.29,3.29s-3.29-1.48-3.29-3.29h-3.29c-1.82,0-3.29-1.48-3.29-3.29v-3.29c-1.82,0-3.29-1.48-3.29-3.29v-7.7c-.79-.75-1.59-1.52-2.41-2.31-.28.08-.58.12-.88.12v4.94c0,.91-.74,1.65-1.65,1.65s-1.65-.74-1.65-1.65v-1.65h-1.65c-.91,0-1.65-.74-1.65-1.65s.74-1.65,1.65-1.65h1.65c0-1.14.58-2.15,1.47-2.74-.53-.51-1.06-1.03-1.6-1.56-.25.59-.84,1-1.52,1-.91,0-1.65-.74-1.65-1.65v-1.65c0-.25.03-.49.08-.73-2.22-2.18-4.51-4.45-6.85-6.77-.27.54-.83.91-1.47.91-.91,0-1.65-.74-1.65-1.65,0-.64.37-1.2.9-1.47-4.13-4.11-8.37-8.36-12.59-12.58-.6.69-1.49,1.13-2.49,1.13v3.29c0,1.82-1.48,3.29-3.29,3.29h-1.65c-.91,0-1.65-.74-1.65-1.65s.74-1.65,1.65-1.65h1.65v-3.29c-1.82,0-3.29-1.48-3.29-3.29v-1.65c0-.91.74-1.65,1.65-1.65s1.65.74,1.65,1.65v1.65h3.29v-.32c-2.21-2.21-4.42-4.4-6.59-6.56v1.94c0,.91-.74,1.65-1.65,1.65s-1.65-.74-1.65-1.65v-5.2c-1.11-1.09-2.21-2.18-3.29-3.24v3.5c0,1.82-1.48,3.29-3.29,3.29,0,1.82-1.48,3.29-3.29,3.29h-3.29c-1.82,0-3.29-1.48-3.29-3.29h-4.94c-.91,0-1.65-.74-1.65-1.65s.74-1.65,1.65-1.65h4.94c0-1.82,1.48-3.29,3.29-3.29h1.65c.91,0,1.65.74,1.65,1.65s-.74,1.65-1.65,1.65h-1.65v3.29h3.29c0-1.82,1.48-3.29,3.29-3.29v-6.59c-1.82,0-3.29-1.48-3.29-3.29-1.77,0-3.22-1.4-3.29-3.16-.05-.04-.09-.09-.14-.13h-3.16v1.65c0,.91-.74,1.65-1.65,1.65s-1.65-.74-1.65-1.65v-4.94c0-.77.27-1.49.71-2.05-2.71-2.47-5.17-4.63-7.3-6.37-3.55-2.91-6.21-4.67-7.61-4.87-2.41-.34-4.21.68-5.57,2.53-.2.28-.4.57-.58.88-.57.96-1.04,2.07-1.45,3.29-.34,1.03-.63,2.14-.87,3.29h9.49v-1.65c0-.91.74-1.65,1.65-1.65s1.65.74,1.65,1.65v4.94h1.65c.91,0,1.65.74,1.65,1.65s-.74,1.65-1.65,1.65h-1.65c-1.82,0-3.29-1.48-3.29-3.29h-3.29v3.29c1.82,0,3.29,1.48,3.29,3.29v1.65c0,.91-.74,1.65-1.65,1.65s-1.65-.74-1.65-1.65v-1.65H.83c-.08,1.14-.13,2.25-.18,3.29h4.32c1.82,0,3.29,1.48,3.29,3.29v3.29c0,1.82-1.48,3.29-3.29,3.29H.1c-.04.67-.07,1.35-.1,2.03.41-.18.86-.28,1.34-.28,1.82,0,3.29,1.48,3.29,3.29h1.65c.91,0,1.65.74,1.65,1.65s-.74,1.65-1.65,1.65h-1.65c0,1.82-1.48,3.29-3.29,3.29v14.83c0,.79-.56,1.45-1.3,1.61.12,2.32.27,4.65.45,6.97.2-.08.41-.13.64-.13h1.65v-8.24c0-.91.74-1.65,1.65-1.65s1.65.74,1.65,1.65v1.65h4.94c.91,0,1.65.74,1.65,1.65s-.74,1.65-1.65,1.65h-4.94v3.29c0,1.82-1.48,3.29-3.29,3.29h-1.65c-.13,0-.25-.02-.37-.04.18,2.03.39,4.05.63,6.07.09,0,.19-.01.29-.01h6.59c0-1.82,1.48-3.29,3.29-3.29h1.65c.91,0,1.65.74,1.65,1.65s-.74,1.65-1.65,1.65h-1.65c0,1.82-1.48,3.29-3.29,3.29v3.29h1.65c.91,0,1.65.74,1.65,1.65s-.74,1.65-1.65,1.65h-1.65c0,1.82-1.48,3.29-3.29,3.29v4.94c0,.46-.19.88-.5,1.18.09.42.17.84.26,1.25h3.99v-1.65c0-.91.74-1.65,1.65-1.65s1.65.74,1.65,1.65v1.65c0,1.82-1.48,3.29-3.29,3.29v1.65c0,.91-.74,1.65-1.65,1.65-.33,0-.64-.1-.9-.27.32,1.29.65,2.57.99,3.85.06-.85.77-1.53,1.64-1.53s1.65.74,1.65,1.65v1.65h3.29v-3.29c0-1.82,1.48-3.29,3.29-3.29v-3.29h-1.65c-.91,0-1.65-.74-1.65-1.65s.74-1.65,1.65-1.65h8.24c0-1.82,1.48-3.29,3.29-3.29v-1.65c0-.91.74-1.65,1.65-1.65s1.65.74,1.65,1.65v1.65c1.82,0,3.29,1.48,3.29,3.29v9.88h1.65c.91,0,1.65.74,1.65,1.65s-.74,1.65-1.65,1.65h-1.65c0,1.82-1.48,3.29-3.29,3.29v6.59h4.94c.91,0,1.65.74,1.65,1.65s-.74,1.65-1.65,1.65h-1.65c0,1.82-1.48,3.29-3.29,3.29h-4.94c-.91,0-1.65-.74-1.65-1.65s.74-1.65,1.65-1.65h1.65v-9.88c0-1.82,1.48-3.29,3.29-3.29v-9.88h-9.88v3.29c0,1.82-1.48,3.29-3.29,3.29v3.29h1.65c.91,0,1.65.74,1.65,1.65s-.74,1.65-1.65,1.65h-1.65v4.94c0,.91-.74,1.65-1.65,1.65s-1.65-.74-1.65-1.65v-4.94h-3.29v3.29c0,.53-.13,1.03-.35,1.48,1.12,3.39,2.34,6.71,3.67,9.96.17-.06.35-.09.54-.09h11.53c1.82,0,3.29,1.48,3.29,3.29h3.29c1.82,0,3.29,1.48,3.29,3.29h1.65c.91,0,1.65.74,1.65,1.65s-.74,1.65-1.65,1.65h-1.65c-1.82,0-3.29-1.48-3.29-3.29h-3.29c0,1.82-1.48,3.29-3.29,3.29h-3.29c0,1.61-1.15,2.94-2.67,3.23,1.75,3.25,3.62,6.39,5.62,9.4.48-1.23,1.67-2.11,3.07-2.11h1.65c.91,0,1.65.74,1.65,1.65s-.74,1.65-1.65,1.65h-1.65v1.65c0,.39-.14.75-.37,1.04,1.17,1.59,2.37,3.14,3.62,4.65v-.74c0-1.82,1.48-3.29,3.29-3.29,0-1.82,1.48-3.29,3.29-3.29h1.65c.91,0,1.65.74,1.65,1.65s-.74,1.65-1.65,1.65h-1.65c0,1.82-1.48,3.29-3.29,3.29v1.65c0,.74-.49,1.37-1.17,1.58,2.63,2.96,5.44,5.73,8.42,8.28-.1-.52-.16-1.06-.16-1.62v-6.59c0-4.55,3.69-8.24,8.24-8.24h6.59c4.55,0,8.24,3.69,8.24,8.24v6.59c0,4.55-3.69,8.24-8.24,8.24h-5.75c2.39,1.53,4.88,2.93,7.47,4.2.21-.67.83-1.16,1.58-1.16h1.65v-1.65c0-.91.74-1.65,1.65-1.65s1.65.74,1.65,1.65v5.64c3.91,1.48,8.01,2.68,12.33,3.56v-4.25c0-.91.74-1.65,1.65-1.65s1.65.74,1.65,1.65v1.65h0v3.21c1.3.21,2.63.4,3.97.55.3-.29.7-.47,1.15-.47h1.65v-3.29c-1.82,0-3.29-1.48-3.29-3.29v-1.65c0-.91.74-1.65,1.65-1.65s1.65.74,1.65,1.65v1.65h3.29v-1.65c0-.91.74-1.65,1.65-1.65s1.65.74,1.65,1.65v1.65c0,1.82-1.48,3.29-3.29,3.29v3.29c0,.34-.05.67-.15.97,2.45.13,4.95.16,7.52.11.23-.63.83-1.08,1.54-1.08h1.65c0-1.82,1.48-3.29,3.29-3.29h3.29c0-1.82,1.48-3.29,3.29-3.29,0-1.82,1.48-3.29,3.29-3.29h6.59c1.82,0,3.29,1.48,3.29,3.29,1.82,0,3.29,1.48,3.29,3.29v.03c1.69-.43,3.35-.87,4.98-1.33-.02-.11-.04-.22-.04-.34v-1.65h-1.65c-.91,0-1.65-.74-1.65-1.65s.74-1.65,1.65-1.65h1.65c1.82,0,3.29,1.48,3.29,3.29v1.03c1.37-.42,2.72-.85,4.05-1.29-.45-.29-.75-.8-.75-1.38,0-.91.74-1.65,1.65-1.65s1.65.74,1.65,1.65c0,.19-.03.37-.09.54,3.27-1.15,6.4-2.38,9.39-3.68-.62-.24-1.06-.84-1.06-1.54,0-.91.74-1.65,1.65-1.65h6.18c.69-.35,1.38-.71,2.06-1.07v-3.87c0-.91.74-1.65,1.65-1.65s1.65.74,1.65,1.65v2.04c2.54-1.47,4.96-3,7.25-4.6h-2.81c-1.82,0-3.29-1.48-3.29-3.29v-8.24c0-.91.74-1.65,1.65-1.65s1.65.74,1.65,1.65v1.65c1.82,0,3.29,1.48,3.29,3.29,1.82,0,3.29,1.48,3.29,3.29v.53c5.12-3.95,9.55-8.23,13.35-12.8-.06,0-.11,0-.17,0h-11.53c-.91,0-1.65-.74-1.65-1.65s.74-1.65,1.65-1.65h11.53v-3.29h-4.94c-.91,0-1.65-.74-1.65-1.65s.74-1.65,1.65-1.65h4.94c1.82,0,3.29,1.48,3.29,3.29v2.56c2.87-3.96,5.3-8.12,7.32-12.45h-.73c-1.82,0-3.29-1.48-3.29-3.29h-3.29v3.29c1.82,0,3.29,1.48,3.29,3.29v1.65c0,.91-.74,1.65-1.65,1.65s-1.65-.74-1.65-1.65v-1.65h-8.24c-.91,0-1.65-.74-1.65-1.65s.74-1.65,1.65-1.65h4.94v-3.29h-6.59v1.65c0,.91-.74,1.65-1.65,1.65s-1.65-.74-1.65-1.65v-1.65c0-1.82,1.48-3.29,3.29-3.29v-3.29c0-1.82,1.48-3.29,3.29-3.29h3.29v-3.29h-6.59v1.65c0,.91-.74,1.65-1.65,1.65s-1.65-.74-1.65-1.65v-1.65c-1.82,0-3.29-1.48-3.29-3.29h-1.65c-.91,0-1.65-.74-1.65-1.65s.74-1.65,1.65-1.65h1.65v-1.65c0-.91.74-1.65,1.65-1.65s1.65.74,1.65,1.65v1.65h3.29v-4.94c0-.91.74-1.65,1.65-1.65s1.65.74,1.65,1.65v1.65h3.29v-3.29h-1.65c-.91,0-1.65-.74-1.65-1.65s.74-1.65,1.65-1.65h1.65v-1.65c0-.91.74-1.65,1.65-1.65s1.65.74,1.65,1.65v1.65h1.65c.91,0,1.65.74,1.65,1.65s-.74,1.65-1.65,1.65h-1.65v3.29c0,1.82-1.48,3.29-3.29,3.29h-3.29v3.29h6.59v-1.65c0-.91.74-1.65,1.65-1.65s1.65.74,1.65,1.65v1.65c1.82,0,3.29,1.48,3.29,3.29,1.82,0,3.29,1.48,3.29,3.29v1.65c0,.91-.74,1.65-1.65,1.65s-1.65-.74-1.65-1.65v-1.65h-3.29c0,1.82-1.48,3.29-3.29,3.29h-6.59v3.29h9.88v-1.65c0-.91.74-1.65,1.65-1.65s1.65.74,1.65,1.65v4.94h1.65c.17,0,.34.03.5.08,1.94-4.72,3.42-9.62,4.46-14.67,1.41-6.86,2.02-14,1.9-21.35ZM119.63,95.78c-.91,0-1.65-.74-1.65-1.65s.74-1.65,1.65-1.65,1.65.74,1.65,1.65-.74,1.65-1.65,1.65ZM26.38,61.45c.91,0,1.65.74,1.65,1.65s-.74,1.65-1.65,1.65-1.65-.74-1.65-1.65.74-1.65,1.65-1.65ZM6.28,87.54v1.65c0,.91-.74,1.65-1.65,1.65s-1.65-.74-1.65-1.65v-3.29c0-.91.74-1.65,1.65-1.65s1.65.74,1.65,1.65v1.65ZM25.28,142.22c.91,0,1.65.74,1.65,1.65s-.74,1.65-1.65,1.65-1.65-.74-1.65-1.65.74-1.65,1.65-1.65ZM18.78,164.52h-3.29c-.91,0-1.65-.74-1.65-1.65s.74-1.65,1.65-1.65h3.29c.91,0,1.65.74,1.65,1.65s-.74,1.65-1.65,1.65ZM22.07,156.74c-.91,0-1.65-.74-1.65-1.65s.74-1.65,1.65-1.65,1.65.74,1.65,1.65-.74,1.65-1.65,1.65ZM39.02,202.86c-.91,0-1.65-.74-1.65-1.65s.74-1.65,1.65-1.65,1.65.74,1.65,1.65-.74,1.65-1.65,1.65ZM178.44,190.42h3.29c.91,0,1.65.74,1.65,1.65s-.74,1.65-1.65,1.65h-3.29c-.91,0-1.65-.74-1.65-1.65s.74-1.65,1.65-1.65ZM199.85,112.26c.91,0,1.65.74,1.65,1.65s-.74,1.65-1.65,1.65-1.65-.74-1.65-1.65.74-1.65,1.65-1.65ZM199.85,125.44c.91,0,1.65.74,1.65,1.65s-.74,1.65-1.65,1.65-1.65-.74-1.65-1.65.74-1.65,1.65-1.65ZM196.56,125.44c-.91,0-1.65-.74-1.65-1.65s.74-1.65,1.65-1.65,1.65.74,1.65,1.65-.74,1.65-1.65,1.65ZM199.85,122.14c-.91,0-1.65-.74-1.65-1.65s.74-1.65,1.65-1.65,1.65.74,1.65,1.65-.74,1.65-1.65,1.65ZM198.2,104.02v4.94c0,1.82-1.48,3.29-3.29,3.29v1.65c0,.91-.74,1.65-1.65,1.65s-1.65-.74-1.65-1.65v-4.94c0-1.82,1.48-3.29,3.29-3.29v-1.65c0-.91.74-1.65,1.65-1.65s1.65.74,1.65,1.65ZM194.91,92.49c.91,0,1.65.74,1.65,1.65s-.74,1.65-1.65,1.65-1.65-.74-1.65-1.65.74-1.65,1.65-1.65ZM192.69,100.22c0,.91-.74,1.65-1.65,1.65s-1.65-.74-1.65-1.65.74-1.65,1.65-1.65,1.65.74,1.65,1.65ZM188.32,92.49h1.65c.91,0,1.65.74,1.65,1.65s-.74,1.65-1.65,1.65h-4.94v3.29c0,1.82-1.48,3.29-3.29,3.29h-3.29v3.29h1.65c.91,0,1.65.74,1.65,1.65s-.74,1.65-1.65,1.65h-1.65v1.65c0,.91-.74,1.65-1.65,1.65s-1.65-.74-1.65-1.65v-1.65h-4.94c-.91,0-1.65-.74-1.65-1.65s.74-1.65,1.65-1.65h1.65c0-1.82,1.48-3.29,3.29-3.29,0-1.82,1.48-3.29,3.29-3.29h3.29v-3.29h-6.59c0,1.82-1.48,3.29-3.29,3.29h-4.94c-.91,0-1.65-.74-1.65-1.65s.74-1.65,1.65-1.65h1.65c0-1.82,1.48-3.29,3.29-3.29h16.47ZM187.75,105.16c-.91,0-1.65-.74-1.65-1.65s.74-1.65,1.65-1.65,1.65.74,1.65,1.65-.74,1.65-1.65,1.65ZM188.9,112.26c0,.91-.74,1.65-1.65,1.65h-1.65v1.65c0,.91-.74,1.65-1.65,1.65s-1.65-.74-1.65-1.65v-1.65c0-1.82,1.48-3.29,3.29-3.29h1.65c.91,0,1.65.74,1.65,1.65ZM170.78,113.9c.91,0,1.65.74,1.65,1.65s-.74,1.65-1.65,1.65h-1.65c-1.82,0-3.29-1.48-3.29-3.29v-1.65c0-.91.74-1.65,1.65-1.65s1.65.74,1.65,1.65v1.65h1.65ZM180.08,74.63c.91,0,1.65.74,1.65,1.65s-.74,1.65-1.65,1.65-1.65-.74-1.65-1.65.74-1.65,1.65-1.65ZM175.72,66.39h-4.94c-.91,0-1.65-.74-1.65-1.65s.74-1.65,1.65-1.65h4.94c1.82,0,3.29,1.48,3.29,3.29h1.65c.91,0,1.65.74,1.65,1.65s-.74,1.65-1.65,1.65h-1.65c-1.82,0-3.29-1.48-3.29-3.29ZM180.47,81.35h1.65c1.82,0,3.29,1.48,3.29,3.29v1.65c0,.91-.74,1.65-1.65,1.65s-1.65-.74-1.65-1.65v-1.65h-1.65c-.91,0-1.65-.74-1.65-1.65s.74-1.65,1.65-1.65ZM185.15,78.57c0-1.82,1.48-3.29,3.29-3.29h1.65c.91,0,1.65.74,1.65,1.65s-.74,1.65-1.65,1.65h-1.65v1.65c0,.91-.74,1.65-1.65,1.65s-1.65-.74-1.65-1.65v-1.65ZM185.03,72.98c0,.91-.74,1.65-1.65,1.65s-1.65-.74-1.65-1.65.74-1.65,1.65-1.65,1.65.74,1.65,1.65ZM180.66,56.51c.91,0,1.65.74,1.65,1.65v3.29c0,.91-.74,1.65-1.65,1.65s-1.65-.74-1.65-1.65v-3.29c0-.91.74-1.65,1.65-1.65ZM177.37,53.21c.91,0,1.65.74,1.65,1.65s-.74,1.65-1.65,1.65-1.65-.74-1.65-1.65.74-1.65,1.65-1.65ZM175.72,51.56c0,.91-.74,1.65-1.65,1.65s-1.65-.74-1.65-1.65.74-1.65,1.65-1.65,1.65.74,1.65,1.65ZM174.07,43.33c.91,0,1.65.74,1.65,1.65s-.74,1.65-1.65,1.65-1.65-.74-1.65-1.65.74-1.65,1.65-1.65ZM164.19,40.03c.91,0,1.65.74,1.65,1.65s-.74,1.65-1.65,1.65-1.65-.74-1.65-1.65.74-1.65,1.65-1.65ZM157.6,30.15c.91,0,1.65.74,1.65,1.65s-.74,1.65-1.65,1.65-1.65-.74-1.65-1.65.74-1.65,1.65-1.65ZM157.6,36.74c.91,0,1.65.74,1.65,1.65s-.74,1.65-1.65,1.65-1.65-.74-1.65-1.65.74-1.65,1.65-1.65ZM147.71,46.62h4.94c0-1.82,1.48-3.29,3.29-3.29h3.29c1.82,0,3.29,1.48,3.29,3.29h3.29v-1.65c0-.91.74-1.65,1.65-1.65s1.65.74,1.65,1.65v1.65h1.65c.91,0,1.65.74,1.65,1.65s-.74,1.65-1.65,1.65h-1.65c0,1.82-1.48,3.29-3.29,3.29,0,1.82-1.48,3.29-3.29,3.29h-3.29v3.29h6.59c0-1.82,1.48-3.29,3.29-3.29v-1.65c0-.91.74-1.65,1.65-1.65s1.65.74,1.65,1.65v1.65h1.65c.91,0,1.65.74,1.65,1.65s-.74,1.65-1.65,1.65h-4.94c0,1.82-1.48,3.29-3.29,3.29v1.65c0,.91-.74,1.65-1.65,1.65s-1.65-.74-1.65-1.65v-1.65h-3.29c0,1.82-1.48,3.29-3.29,3.29v1.65c0,.91-.74,1.65-1.65,1.65s-1.65-.74-1.65-1.65v-1.65c0-1.82,1.48-3.29,3.29-3.29v-6.59c0-1.82,1.48-3.29,3.29-3.29v-3.29h-11.53c-.91,0-1.65-.74-1.65-1.65s.74-1.65,1.65-1.65ZM154.23,138.61v1.65c0,.91-.74,1.65-1.65,1.65s-1.65-.74-1.65-1.65v-1.65c0-1.82,1.48-3.29,3.29-3.29,0-1.82,1.48-3.29,3.29-3.29h1.65c.91,0,1.65.74,1.65,1.65s-.74,1.65-1.65,1.65h-1.65c0,1.82-1.48,3.29-3.29,3.29ZM157.52,146.85c0,.91-.74,1.65-1.65,1.65s-1.65-.74-1.65-1.65.74-1.65,1.65-1.65,1.65.74,1.65,1.65ZM144.34,141.91v-4.94c0-.91.74-1.65,1.65-1.65s1.65.74,1.65,1.65v4.94c1.82,0,3.29,1.48,3.29,3.29v1.65c0,.91-.74,1.65-1.65,1.65s-1.65-.74-1.65-1.65v-1.65c-1.82,0-3.29-1.48-3.29-3.29ZM147.64,133.67c0-.91.74-1.65,1.65-1.65s1.65.74,1.65,1.65-.74,1.65-1.65,1.65-1.65-.74-1.65-1.65ZM152.58,148.5c.91,0,1.65.74,1.65,1.65s-.74,1.65-1.65,1.65-1.65-.74-1.65-1.65.74-1.65,1.65-1.65ZM152.58,128.73c.91,0,1.65.74,1.65,1.65s-.74,1.65-1.65,1.65-1.65-.74-1.65-1.65.74-1.65,1.65-1.65ZM150.93,123.79c0-.91.74-1.65,1.65-1.65s1.65.74,1.65,1.65-.74,1.65-1.65,1.65-1.65-.74-1.65-1.65ZM155.88,115.55h-6.59c-4.55,0-8.24-3.69-8.24-8.24v-6.59c0-4.55,3.69-8.24,8.24-8.24h6.59c4.55,0,8.24,3.69,8.24,8.24v6.59c0,4.55-3.69,8.24-8.24,8.24ZM151.3,62.21c-.91,0-1.65-.74-1.65-1.65s.74-1.65,1.65-1.65,1.65.74,1.65,1.65-.74,1.65-1.65,1.65ZM154.3,84.51v-1.65c0-1.82,1.48-3.29,3.29-3.29,0-1.82,1.48-3.29,3.29-3.29h1.65c.91,0,1.65.74,1.65,1.65s-.74,1.65-1.65,1.65h-1.65c0,1.82-1.48,3.29-3.29,3.29v1.65c0,.91-.74,1.65-1.65,1.65s-1.65-.74-1.65-1.65ZM155.95,71.33c0-.91.74-1.65,1.65-1.65s1.65.74,1.65,1.65-.74,1.65-1.65,1.65-1.65-.74-1.65-1.65ZM162.54,71.33c0-.91.74-1.65,1.65-1.65s1.65.74,1.65,1.65-.74,1.65-1.65,1.65-1.65-.74-1.65-1.65ZM144.42,49.92c.91,0,1.65.74,1.65,1.65v1.65h4.94c.91,0,1.65.74,1.65,1.65s-.74,1.65-1.65,1.65h-4.94c-1.82,0-3.29-1.48-3.29-3.29v-1.65c0-.91.74-1.65,1.65-1.65ZM148.07,62.21v3.29c0,.91-.74,1.65-1.65,1.65s-1.65-.74-1.65-1.65v-3.29c0-.91.74-1.65,1.65-1.65s1.65.74,1.65,1.65ZM128.23,61.45c-.91,0-1.65-.74-1.65-1.65s.74-1.65,1.65-1.65h1.65c1.82,0,3.29,1.48,3.29,3.29v3.29h4.94c.91,0,1.65.74,1.65,1.65s-.74,1.65-1.65,1.65h-4.94v1.65c0,.91-.74,1.65-1.65,1.65s-1.65-.74-1.65-1.65v-8.24h-1.65ZM136.47,59.8c0-.91.74-1.65,1.65-1.65s1.65.74,1.65,1.65-.74,1.65-1.65,1.65-1.65-.74-1.65-1.65ZM139.76,72.98c0,.91-.74,1.65-1.65,1.65s-1.65-.74-1.65-1.65.74-1.65,1.65-1.65,1.65.74,1.65,1.65ZM138.12,78.73c.91,0,1.65.74,1.65,1.65s-.74,1.65-1.65,1.65-1.65-.74-1.65-1.65.74-1.65,1.65-1.65ZM139.76,69.68c0-.91.74-1.65,1.65-1.65s1.65.74,1.65,1.65-.74,1.65-1.65,1.65-1.65-.74-1.65-1.65ZM141.41,64.74c-.91,0-1.65-.74-1.65-1.65s.74-1.65,1.65-1.65,1.65.74,1.65,1.65-.74,1.65-1.65,1.65ZM126.3,54.86c0-.91.74-1.65,1.65-1.65h1.65v-3.29c-1.82,0-3.29-1.48-3.29-3.29s1.48-3.29,3.29-3.29,3.29,1.48,3.29,3.29h3.29v-1.65c0-.91.74-1.65,1.65-1.65s1.65.74,1.65,1.65v1.65h1.65c.91,0,1.65.74,1.65,1.65s-.74,1.65-1.65,1.65h-8.24v3.29h1.65c.91,0,1.65.74,1.65,1.65s-.74,1.65-1.65,1.65h-6.59c-.91,0-1.65-.74-1.65-1.65ZM123.29,81.09c-.91,0-1.65-.74-1.65-1.65s.74-1.65,1.65-1.65h1.65c0-1.82,1.48-3.29,3.29-3.29h4.94c.91,0,1.65.74,1.65,1.65s-.74,1.65-1.65,1.65h-1.65v3.29c1.82,0,3.29,1.48,3.29,3.29,1.82,0,3.29,1.48,3.29,3.29h6.59c0-1.82,1.48-3.29,3.29-3.29v-3.29h-3.29v1.65c0,.91-.74,1.65-1.65,1.65s-1.65-.74-1.65-1.65v-1.65c0-1.82,1.48-3.29,3.29-3.29v-4.94c0-.91.74-1.65,1.65-1.65s1.65.74,1.65,1.65v4.94c1.82,0,3.29,1.48,3.29,3.29v3.29c0,1.82-1.48,3.29-3.29,3.29,0,1.82-1.48,3.29-3.29,3.29h-6.59c-1.82,0-3.29-1.48-3.29-3.29-1.82,0-3.29-1.48-3.29-3.29h-3.29c-1.82,0-3.29-1.48-3.29-3.29h-1.65ZM126.22,105.67c-.91,0-1.65-.74-1.65-1.65s.74-1.65,1.65-1.65h1.65v-3.29c-1.82,0-3.29-1.48-3.29-3.29s1.48-3.29,3.29-3.29,3.29,1.48,3.29,3.29h3.29v-1.65c0-.91.74-1.65,1.65-1.65s1.65.74,1.65,1.65v6.59c0,.91-.74,1.65-1.65,1.65s-1.65-.74-1.65-1.65v-1.65h-3.29v8.24c0,.91-.74,1.65-1.65,1.65s-1.65-.74-1.65-1.65v-1.65h-1.65ZM132.81,112.26c-.91,0-1.65-.74-1.65-1.65s.74-1.65,1.65-1.65h1.65c1.82,0,3.29,1.48,3.29,3.29v4.94c0,.91-.74,1.65-1.65,1.65s-1.65-.74-1.65-1.65v-4.94h-1.65ZM124.57,122.14c0-1.82,1.48-3.29,3.29-3.29v-4.94c0-.91.74-1.65,1.65-1.65s1.65.74,1.65,1.65v11.53h3.29c0-1.82,1.48-3.29,3.29-3.29h6.59c0-1.82,1.48-3.29,3.29-3.29h1.65c.91,0,1.65.74,1.65,1.65s-.74,1.65-1.65,1.65h-1.65c0,1.82-1.48,3.29-3.29,3.29v3.29h1.65c.91,0,1.65.74,1.65,1.65s-.74,1.65-1.65,1.65h-1.65c0,1.82-1.48,3.29-3.29,3.29v4.94c0,.91-.74,1.65-1.65,1.65s-1.65-.74-1.65-1.65v-1.65h-1.65c-.91,0-1.65-.74-1.65-1.65s.74-1.65,1.65-1.65h1.65c0-1.82,1.48-3.29,3.29-3.29v-6.59h-3.29v3.29c0,1.82-1.48,3.29-3.29,3.29,0,1.82-1.48,3.29-3.29,3.29v1.65c0,.91-.74,1.65-1.65,1.65s-1.65-.74-1.65-1.65v-1.65h-1.65c-.91,0-1.65-.74-1.65-1.65s.74-1.65,1.65-1.65h1.65v-3.29c-1.82,0-3.29-1.48-3.29-3.29v-3.29ZM136.11,141.91c.91,0,1.65.74,1.65,1.65s-.74,1.65-1.65,1.65-1.65-.74-1.65-1.65.74-1.65,1.65-1.65ZM132.81,141.91c-.91,0-1.65-.74-1.65-1.65s.74-1.65,1.65-1.65,1.65.74,1.65,1.65-.74,1.65-1.65,1.65ZM142.7,148.5h-3.29c-.91,0-1.65-.74-1.65-1.65s.74-1.65,1.65-1.65h3.29c.91,0,1.65.74,1.65,1.65s-.74,1.65-1.65,1.65ZM144.34,153.44c0,.91-.74,1.65-1.65,1.65h-3.29c-.91,0-1.65-.74-1.65-1.65s.74-1.65,1.65-1.65h3.29c.91,0,1.65.74,1.65,1.65ZM127.87,140.26c0,.91-.74,1.65-1.65,1.65s-1.65-.74-1.65-1.65.74-1.65,1.65-1.65,1.65.74,1.65,1.65ZM122.93,128.73c.91,0,1.65.74,1.65,1.65s-.74,1.65-1.65,1.65-1.65-.74-1.65-1.65.74-1.65,1.65-1.65ZM119.63,122.14c.91,0,1.65.74,1.65,1.65s-.74,1.65-1.65,1.65-1.65-.74-1.65-1.65.74-1.65,1.65-1.65ZM113.04,122.14c.91,0,1.65.74,1.65,1.65s-.74,1.65-1.65,1.65-1.65-.74-1.65-1.65.74-1.65,1.65-1.65ZM106.45,132.02h1.65c0-1.82,1.48-3.29,3.29-3.29h1.65c.91,0,1.65.74,1.65,1.65s-.74,1.65-1.65,1.65h-1.65v3.29h3.29v-1.65c0-.91.74-1.65,1.65-1.65s1.65.74,1.65,1.65v1.65h1.65c.91,0,1.65.74,1.65,1.65s-.74,1.65-1.65,1.65h-1.65v3.29h3.29c1.82,0,3.29,1.48,3.29,3.29h3.29v-1.65c0-.91.74-1.65,1.65-1.65s1.65.74,1.65,1.65v8.24c1.82,0,3.29,1.48,3.29,3.29h1.65c.91,0,1.65.74,1.65,1.65s-.74,1.65-1.65,1.65h-1.65c0,1.82-1.48,3.29-3.29,3.29h-9.88v1.65c0,.91-.74,1.65-1.65,1.65s-1.65-.74-1.65-1.65v-1.65c-1.82,0-3.29-1.48-3.29-3.29h-6.59v4.94c0,.91-.74,1.65-1.65,1.65s-1.65-.74-1.65-1.65v-1.65c-1.82,0-3.29-1.48-3.29-3.29v-4.94c0-.91.74-1.65,1.65-1.65s1.65.74,1.65,1.65v1.65h9.88c1.82,0,3.29,1.48,3.29,3.29h9.88v-9.88h-3.29c-1.82,0-3.29-1.48-3.29-3.29h-3.29v1.65c0,.91-.74,1.65-1.65,1.65s-1.65-.74-1.65-1.65v-1.65h-4.94c-.91,0-1.65-.74-1.65-1.65s.74-1.65,1.65-1.65h4.94v-3.29h-3.29c-1.82,0-3.29-1.48-3.29-3.29h-1.65c-.91,0-1.65-.74-1.65-1.65s.74-1.65,1.65-1.65ZM142.7,171.56c.91,0,1.65.74,1.65,1.65s-.74,1.65-1.65,1.65h-1.65c0,1.82-1.48,3.29-3.29,3.29h-1.65c-.91,0-1.65-.74-1.65-1.65s.74-1.65,1.65-1.65h1.65v-8.24c0-.91.74-1.65,1.65-1.65s1.65.74,1.65,1.65v4.94h1.65ZM144.34,169.92c0-.91.74-1.65,1.65-1.65s1.65.74,1.65,1.65-.74,1.65-1.65,1.65-1.65-.74-1.65-1.65ZM124.57,174.86h-1.65c-.91,0-1.65-.74-1.65-1.65s.74-1.65,1.65-1.65h4.94v-3.29c0-1.82,1.48-3.29,3.29-3.29h1.65c.91,0,1.65.74,1.65,1.65s-.74,1.65-1.65,1.65h-1.65v8.24c0,.91-.74,1.65-1.65,1.65s-1.65-.74-1.65-1.65v-1.65h-3.29ZM119.63,174.86c.91,0,1.65.74,1.65,1.65s-.74,1.65-1.65,1.65-1.65-.74-1.65-1.65.74-1.65,1.65-1.65ZM117.99,169.92c0-.91.74-1.65,1.65-1.65s1.65.74,1.65,1.65-.74,1.65-1.65,1.65-1.65-.74-1.65-1.65ZM122.93,178.15c.91,0,1.65.74,1.65,1.65s-.74,1.65-1.65,1.65-1.65-.74-1.65-1.65.74-1.65,1.65-1.65ZM121.28,166.62c0-.91.74-1.65,1.65-1.65s1.65.74,1.65,1.65-.74,1.65-1.65,1.65-1.65-.74-1.65-1.65ZM103.16,168.27c-.91,0-1.65-.74-1.65-1.65s.74-1.65,1.65-1.65,1.65.74,1.65,1.65-.74,1.65-1.65,1.65ZM104.81,173.21c0,.91-.74,1.65-1.65,1.65s-1.65-.74-1.65-1.65.74-1.65,1.65-1.65,1.65.74,1.65,1.65ZM106.45,141.91c-.91,0-1.65-.74-1.65-1.65s.74-1.65,1.65-1.65,1.65.74,1.65,1.65-.74,1.65-1.65,1.65ZM108.1,148.5h4.94c.91,0,1.65.74,1.65,1.65s-.74,1.65-1.65,1.65h-6.59c-.91,0-1.65-.74-1.65-1.65s.74-1.65,1.65-1.65h1.65ZM119.63,151.79c-.91,0-1.65-.74-1.65-1.65s.74-1.65,1.65-1.65,1.65.74,1.65,1.65-.74,1.65-1.65,1.65ZM122.93,151.79c.91,0,1.65.74,1.65,1.65s-.74,1.65-1.65,1.65-1.65-.74-1.65-1.65.74-1.65,1.65-1.65ZM103.16,135.32c.91,0,1.65.74,1.65,1.65s-.74,1.65-1.65,1.65-1.65-.74-1.65-1.65.74-1.65,1.65-1.65ZM81.74,151.79v-16.47c0-1.82,1.48-3.29,3.29-3.29v-1.65c0-.91.74-1.65,1.65-1.65s1.65.74,1.65,1.65v4.94c0,1.82-1.48,3.29-3.29,3.29v6.59h3.29v-3.29c0-1.82,1.48-3.29,3.29-3.29,0-1.82,1.48-3.29,3.29-3.29v-1.65c0-.91.74-1.65,1.65-1.65s1.65.74,1.65,1.65v4.94h1.65c.91,0,1.65.74,1.65,1.65s-.74,1.65-1.65,1.65h-1.65v1.65c0,.91-.74,1.65-1.65,1.65s-1.65-.74-1.65-1.65v-1.65h-3.29v3.29c0,1.82-1.48,3.29-3.29,3.29h-3.29v4.94c0,.91-.74,1.65-1.65,1.65s-1.65-.74-1.65-1.65v-1.65ZM88.33,158.38h-1.65c-.91,0-1.65-.74-1.65-1.65s.74-1.65,1.65-1.65h1.65v-1.65c0-.91.74-1.65,1.65-1.65s1.65.74,1.65,1.65v1.65h4.94c.91,0,1.65.74,1.65,1.65s-.74,1.65-1.65,1.65h-1.65v1.65c0,.91-.74,1.65-1.65,1.65s-1.65-.74-1.65-1.65v-1.65h-3.29ZM91.63,150.15c0-.91.74-1.65,1.65-1.65s1.65.74,1.65,1.65-.74,1.65-1.65,1.65-1.65-.74-1.65-1.65ZM96.57,161.68c.91,0,1.65.74,1.65,1.65s-.74,1.65-1.65,1.65-1.65-.74-1.65-1.65.74-1.65,1.65-1.65ZM83.39,184.74h4.94c0-1.82,1.48-3.29,3.29-3.29h1.65c.91,0,1.65.74,1.65,1.65s-.74,1.65-1.65,1.65h-1.65v3.29h3.29c0-1.82,1.48-3.29,3.29-3.29v-6.59c-1.82,0-3.29-1.48-3.29-3.29-1.82,0-3.29-1.48-3.29-3.29h-3.29v1.65c0,.91-.74,1.65-1.65,1.65s-1.65-.74-1.65-1.65v-4.94c0-1.82,1.48-3.29,3.29-3.29v-1.65c0-.91.74-1.65,1.65-1.65s1.65.74,1.65,1.65v1.65c1.82,0,3.29,1.48,3.29,3.29v3.29c1.82,0,3.29,1.48,3.29,3.29,1.82,0,3.29,1.48,3.29,3.29v6.59c0,1.82-1.48,3.29-3.29,3.29,0,1.82-1.48,3.29-3.29,3.29h-3.29c-1.82,0-3.29-1.48-3.29-3.29h-4.94c-.91,0-1.65-.74-1.65-1.65s.74-1.65,1.65-1.65ZM85.04,179.8c0-.91.74-1.65,1.65-1.65s1.65.74,1.65,1.65-.74,1.65-1.65,1.65-1.65-.74-1.65-1.65ZM85.04,194.63v-1.65c0-.91.74-1.65,1.65-1.65s1.65.74,1.65,1.65v1.65h1.65c.91,0,1.65.74,1.65,1.65s-.74,1.65-1.65,1.65h-11.53c-1.82,0-3.29-1.48-3.29-3.29h-3.29v3.29c1.82,0,3.29,1.48,3.29,3.29s-1.48,3.29-3.29,3.29v4.94c0,.91-.74,1.65-1.65,1.65s-1.65-.74-1.65-1.65v-19.77c0-.91.74-1.65,1.65-1.65s1.65.74,1.65,1.65v1.65h3.29c1.82,0,3.29,1.48,3.29,3.29h6.59ZM81.74,202.86c0,.91-.74,1.65-1.65,1.65s-1.65-.74-1.65-1.65.74-1.65,1.65-1.65,1.65.74,1.65,1.65ZM65.27,174.86h-4.94c-.91,0-1.65-.74-1.65-1.65s.74-1.65,1.65-1.65h4.94v-3.29h-6.59v1.65c0,.91-.74,1.65-1.65,1.65s-1.65-.74-1.65-1.65v-1.65c0-1.82,1.48-3.29,3.29-3.29v-3.29c0-1.82,1.48-3.29,3.29-3.29h3.29v-3.29h-6.59v1.65c0,.91-.74,1.65-1.65,1.65s-1.65-.74-1.65-1.65v-1.65c-1.82,0-3.29-1.48-3.29-3.29h-1.65c-.91,0-1.65-.74-1.65-1.65s.74-1.65,1.65-1.65h1.65v-1.65c0-.91.74-1.65,1.65-1.65s1.65.74,1.65,1.65v1.65h3.29v-4.94c0-.91.74-1.65,1.65-1.65s1.65.74,1.65,1.65v1.65h3.29v-3.29h-1.65c-.91,0-1.65-.74-1.65-1.65s.74-1.65,1.65-1.65h1.65v-1.65c0-.91.74-1.65,1.65-1.65s1.65.74,1.65,1.65v1.65h1.65c.91,0,1.65.74,1.65,1.65s-.74,1.65-1.65,1.65h-1.65v3.29c0,1.82-1.48,3.29-3.29,3.29h-3.29v3.29h6.59v-1.65c0-.91.74-1.65,1.65-1.65s1.65.74,1.65,1.65v1.65c1.82,0,3.29,1.48,3.29,3.29,1.82,0,3.29,1.48,3.29,3.29v1.65c0,.91-.74,1.65-1.65,1.65s-1.65-.74-1.65-1.65v-1.65h-3.29c0,1.82-1.48,3.29-3.29,3.29h-6.59v3.29h9.88v-1.65c0-.91.74-1.65,1.65-1.65s1.65.74,1.65,1.65v4.94h1.65c.91,0,1.65.74,1.65,1.65s-.74,1.65-1.65,1.65h-1.65c-1.82,0-3.29-1.48-3.29-3.29h-3.29v3.29c1.82,0,3.29,1.48,3.29,3.29v1.65c0,.91-.74,1.65-1.65,1.65s-1.65-.74-1.65-1.65v-1.65h-3.29ZM47.15,151.79c.91,0,1.65.74,1.65,1.65v1.65c0,1.82-1.48,3.29-3.29,3.29v1.65c0,.91-.74,1.65-1.65,1.65s-1.65-.74-1.65-1.65v-1.65c0-1.82,1.48-3.29,3.29-3.29v-1.65c0-.91.74-1.65,1.65-1.65ZM45.5,143.56c0-.91.74-1.65,1.65-1.65h3.29c.91,0,1.65.74,1.65,1.65s-.74,1.65-1.65,1.65h-3.29c-.91,0-1.65-.74-1.65-1.65ZM48.79,161.68c0-1.82,1.48-3.29,3.29-3.29h1.65c.91,0,1.65.74,1.65,1.65s-.74,1.65-1.65,1.65h-1.65v1.65c0,.91-.74,1.65-1.65,1.65s-1.65-.74-1.65-1.65v-1.65ZM58.68,138.61v1.65c0,.91-.74,1.65-1.65,1.65s-1.65-.74-1.65-1.65v-1.65c-1.82,0-3.29-1.48-3.29-3.29v-1.65c0-.91.74-1.65,1.65-1.65s1.65.74,1.65,1.65v1.65c1.82,0,3.29,1.48,3.29,3.29ZM58.68,133.67c0-.91.74-1.65,1.65-1.65h3.29c.91,0,1.65.74,1.65,1.65s-.74,1.65-1.65,1.65h-3.29c-.91,0-1.65-.74-1.65-1.65ZM76.8,184.74c.91,0,1.65.74,1.65,1.65s-.74,1.65-1.65,1.65h-1.65c-1.82,0-3.29-1.48-3.29-3.29v-3.29c0-1.82,1.48-3.29,3.29-3.29h1.65c.91,0,1.65.74,1.65,1.65s-.74,1.65-1.65,1.65h-1.65v3.29h1.65ZM80.09,188.04c.91,0,1.65.74,1.65,1.65s-.74,1.65-1.65,1.65-1.65-.74-1.65-1.65.74-1.65,1.65-1.65ZM80.09,184.74c-.91,0-1.65-.74-1.65-1.65s.74-1.65,1.65-1.65,1.65.74,1.65,1.65-.74,1.65-1.65,1.65ZM80.09,174.86c-.91,0-1.65-.74-1.65-1.65s.74-1.65,1.65-1.65,1.65.74,1.65,1.65-.74,1.65-1.65,1.65ZM80.09,168.27c-.91,0-1.65-.74-1.65-1.65s.74-1.65,1.65-1.65,1.65.74,1.65,1.65-.74,1.65-1.65,1.65ZM80.09,132.02c-.91,0-1.65-.74-1.65-1.65s.74-1.65,1.65-1.65,1.65.74,1.65,1.65-.74,1.65-1.65,1.65ZM76.8,125.44c.91,0,1.65.74,1.65,1.65s-.74,1.65-1.65,1.65-1.65-.74-1.65-1.65.74-1.65,1.65-1.65ZM75.15,120.49c0-.91.74-1.65,1.65-1.65s1.65.74,1.65,1.65-.74,1.65-1.65,1.65-1.65-.74-1.65-1.65ZM73.51,125.44c-.91,0-1.65-.74-1.65-1.65s.74-1.65,1.65-1.65,1.65.74,1.65,1.65-.74,1.65-1.65,1.65ZM71.86,130.38v1.65h3.29c1.82,0,3.29,1.48,3.29,3.29v1.65c0,.91-.74,1.65-1.65,1.65s-1.65-.74-1.65-1.65v-1.65h-3.29c-1.82,0-3.29-1.48-3.29-3.29v-1.65c0-.91.74-1.65,1.65-1.65s1.65.74,1.65,1.65ZM78.45,146.85c0,.91-.74,1.65-1.65,1.65s-1.65-.74-1.65-1.65.74-1.65,1.65-1.65,1.65.74,1.65,1.65ZM80.09,115.55c.91,0,1.65.74,1.65,1.65s-.74,1.65-1.65,1.65-1.65-.74-1.65-1.65.74-1.65,1.65-1.65ZM76.8,112.26c.91,0,1.65.74,1.65,1.65s-.74,1.65-1.65,1.65-1.65-.74-1.65-1.65.74-1.65,1.65-1.65ZM68.56,112.26v-3.29c0-1.82,1.48-3.29,3.29-3.29v-1.65c0-.91.74-1.65,1.65-1.65s1.65.74,1.65,1.65v4.94c0,1.82-1.48,3.29-3.29,3.29v1.65c0,.91-.74,1.65-1.65,1.65s-1.65-.74-1.65-1.65v-1.65ZM68.56,122.14v3.29c0,1.82-1.48,3.29-3.29,3.29h-4.94c-.91,0-1.65-.74-1.65-1.65s.74-1.65,1.65-1.65h4.94v-3.29h-6.59v1.65c0,.91-.74,1.65-1.65,1.65s-1.65-.74-1.65-1.65v-1.65h-3.29v6.59c0,1.82-1.48,3.29-3.29,3.29v3.29c0,1.82-1.48,3.29-3.29,3.29v1.65c0,.91-.74,1.65-1.65,1.65s-1.65-.74-1.65-1.65v-1.65c0-1.82,1.48-3.29,3.29-3.29v-3.29h-1.65c-.91,0-1.65-.74-1.65-1.65s.74-1.65,1.65-1.65h1.65c0-1.82,1.48-3.29,3.29-3.29v-3.29h-1.65c-.91,0-1.65-.74-1.65-1.65s.74-1.65,1.65-1.65h18.12c1.82,0,3.29,1.48,3.29,3.29ZM61.97,88.13c.91,0,1.65.74,1.65,1.65s-.74,1.65-1.65,1.65-1.65-.74-1.65-1.65.74-1.65,1.65-1.65ZM55.38,88.13c.91,0,1.65.74,1.65,1.65s-.74,1.65-1.65,1.65-1.65-.74-1.65-1.65.74-1.65,1.65-1.65ZM50.44,92.49h6.59c4.55,0,8.24,3.69,8.24,8.24v6.59c0,4.55-3.69,8.24-8.24,8.24h-6.59c-4.55,0-8.24-3.69-8.24-8.24v-6.59c0-4.55,3.69-8.24,8.24-8.24ZM36.27,81.22h1.65c0-1.82,1.48-3.29,3.29-3.29v-1.65c0-.91.74-1.65,1.65-1.65s1.65.74,1.65,1.65v1.65c0,1.82-1.48,3.29-3.29,3.29,0,1.82-1.48,3.29-3.29,3.29h0s-1.65,0-1.65,0c-.91,0-1.65-.74-1.65-1.65s.74-1.65,1.65-1.65ZM32.97,84.51c.91,0,1.65.74,1.65,1.65s-.74,1.65-1.65,1.65h-6.59c-.91,0-1.65-.74-1.65-1.65s.74-1.65,1.65-1.65h1.65s3.29,0,3.29,0h1.65ZM17.13,99.65c.91,0,1.65.74,1.65,1.65s-.74,1.65-1.65,1.65-1.65-.74-1.65-1.65.74-1.65,1.65-1.65ZM14.85,89.45c0-.91.74-1.65,1.65-1.65s1.65.74,1.65,1.65-.74,1.65-1.65,1.65-1.65-.74-1.65-1.65ZM17.59,112.64c.91,0,1.65.74,1.65,1.65s-.74,1.65-1.65,1.65-1.65-.74-1.65-1.65.74-1.65,1.65-1.65ZM18.78,104.59c0-.91.74-1.65,1.65-1.65s1.65.74,1.65,1.65-.74,1.65-1.65,1.65-1.65-.74-1.65-1.65ZM20.89,109.34c.91,0,1.65.74,1.65,1.65s-.74,1.65-1.65,1.65-1.65-.74-1.65-1.65.74-1.65,1.65-1.65ZM21.44,97.69h-1.65c-.91,0-1.65-.74-1.65-1.65s.74-1.65,1.65-1.65h1.65v-4.94c0-.91.74-1.65,1.65-1.65s1.65.74,1.65,1.65v1.65h1.65c.91,0,1.65.74,1.65,1.65s-.74,1.65-1.65,1.65h-1.65c0,1.82-1.48,3.29-3.29,3.29ZM18.14,86.16c0-.91.74-1.65,1.65-1.65s1.65.74,1.65,1.65-.74,1.65-1.65,1.65-1.65-.74-1.65-1.65ZM29.68,94.4c.91,0,1.65.74,1.65,1.65s-.74,1.65-1.65,1.65-1.65-.74-1.65-1.65.74-1.65,1.65-1.65ZM26.92,101.3h3.29c.91,0,1.65.74,1.65,1.65s-.74,1.65-1.65,1.65h-3.29c-.91,0-1.65-.74-1.65-1.65s.74-1.65,1.65-1.65ZM31.32,92.75c0-.91.74-1.65,1.65-1.65s1.65.74,1.65,1.65-.74,1.65-1.65,1.65-1.65-.74-1.65-1.65ZM19.79,48.27c.91,0,1.65.74,1.65,1.65s-.74,1.65-1.65,1.65-1.65-.74-1.65-1.65.74-1.65,1.65-1.65ZM19.79,54.86c.91,0,1.65.74,1.65,1.65s-.74,1.65-1.65,1.65-1.65-.74-1.65-1.65.74-1.65,1.65-1.65ZM19.79,68.04c-.91,0-1.65-.74-1.65-1.65s.74-1.65,1.65-1.65,1.65.74,1.65,1.65-.74,1.65-1.65,1.65ZM21.44,72.98c0,.91-.74,1.65-1.65,1.65s-1.65-.74-1.65-1.65.74-1.65,1.65-1.65,1.65.74,1.65,1.65ZM11.55,64.74c0-1.82,1.48-3.29,3.29-3.29h1.65c.91,0,1.65.74,1.65,1.65s-.74,1.65-1.65,1.65h-1.65v3.29h1.65c.91,0,1.65.74,1.65,1.65s-.74,1.65-1.65,1.65h-1.65c-1.82,0-3.29-1.48-3.29-3.29v-3.29ZM9.91,94.4c-.91,0-1.65-.74-1.65-1.65v-19.77c0-.91.74-1.65,1.65-1.65s1.65.74,1.65,1.65v1.65h3.29c1.82,0,3.29,1.48,3.29,3.29h6.59v-1.65c0-.91.74-1.65,1.65-1.65s1.65.74,1.65,1.65v1.65h1.65c.91,0,1.65.74,1.65,1.65s-.74,1.65-1.65,1.65h-11.53c-1.82,0-3.29-1.48-3.29-3.29h-3.29v3.29c1.82,0,3.29,1.48,3.29,3.29s-1.48,3.29-3.29,3.29v4.94c0,.91-.74,1.65-1.65,1.65ZM13.2,110.51h-3.29c-.91,0-1.65-.74-1.65-1.65s.74-1.65,1.65-1.65h3.29c.91,0,1.65.74,1.65,1.65s-.74,1.65-1.65,1.65ZM13.2,97.69c-.91,0-1.65-.74-1.65-1.65s.74-1.65,1.65-1.65,1.65.74,1.65,1.65-.74,1.65-1.65,1.65ZM19.79,131.26h-6.59c-.91,0-1.65-.74-1.65-1.65s.74-1.65,1.65-1.65h1.65v-1.65c0-.91.74-1.65,1.65-1.65s1.65.74,1.65,1.65v1.65h1.65c.91,0,1.65.74,1.65,1.65s-.74,1.65-1.65,1.65ZM23.09,127.97c-.91,0-1.65-.74-1.65-1.65s.74-1.65,1.65-1.65,1.65.74,1.65,1.65-.74,1.65-1.65,1.65ZM23.09,121.38h-1.65v1.65c0,.91-.74,1.65-1.65,1.65s-1.65-.74-1.65-1.65v-1.65c0-1.82,1.48-3.29,3.29-3.29h1.65c.91,0,1.65.74,1.65,1.65s-.74,1.65-1.65,1.65ZM35.12,129.8c-.91,0-1.65-.74-1.65-1.65s.74-1.65,1.65-1.65h1.65v-1.65c0-.91.74-1.65,1.65-1.65s1.65.74,1.65,1.65v9.88c0,.91-.74,1.65-1.65,1.65s-1.65-.74-1.65-1.65v-4.94h-1.65ZM36.76,116.18c0-.91.74-1.65,1.65-1.65s1.65.74,1.65,1.65-.74,1.65-1.65,1.65-1.65-.74-1.65-1.65ZM36.76,141.03c0-.91.74-1.65,1.65-1.65s1.65.74,1.65,1.65-.74,1.65-1.65,1.65-1.65-.74-1.65-1.65ZM37.91,183.65h-1.65v1.65c0,.91-.74,1.65-1.65,1.65s-1.65-.74-1.65-1.65v-1.65h-4.94c-.91,0-1.65-.74-1.65-1.65s.74-1.65,1.65-1.65h1.65v-1.65c0-.91.74-1.65,1.65-1.65s1.65.74,1.65,1.65v1.65h4.94c.91,0,1.65.74,1.65,1.65s-.74,1.65-1.65,1.65ZM38.41,167.62h-3.29c-.91,0-1.65-.74-1.65-1.65s.74-1.65,1.65-1.65h3.29c.91,0,1.65.74,1.65,1.65s-.74,1.65-1.65,1.65ZM40.06,151.1v1.65c0,.91-.74,1.65-1.65,1.65s-1.65-.74-1.65-1.65v-3.29c0-.91.74-1.65,1.65-1.65s1.65.74,1.65,1.65v1.65ZM40.1,103.76v6.59c0,1.82-1.48,3.29-3.29,3.29h-3.29v3.29c1.82,0,3.29,1.48,3.29,3.29s-1.48,3.29-3.29,3.29v1.65c0,.91-.74,1.65-1.65,1.65s-1.65-.74-1.65-1.65v-4.94c-1.82,0-3.29-1.48-3.29-3.29h-1.65c-.91,0-1.65-.74-1.65-1.65s.74-1.65,1.65-1.65h4.94v-3.29c0-1.82,1.48-3.29,3.29-3.29,0-1.82,1.48-3.29,3.29-3.29v-1.65c0-.91.74-1.65,1.65-1.65s1.65.74,1.65,1.65v1.65ZM42.2,94.13c0,1.82-1.48,3.29-3.29,3.29h-1.65c-.91,0-1.65-.74-1.65-1.65s.74-1.65,1.65-1.65h1.65v-3.29c0-1.82,1.48-3.29,3.29-3.29h1.65c.91,0,1.65.74,1.65,1.65s-.74,1.65-1.65,1.65h-1.65v3.29ZM42.2,150.15c0-.91.74-1.65,1.65-1.65s1.65.74,1.65,1.65-.74,1.65-1.65,1.65-1.65-.74-1.65-1.65ZM50.44,184.74c-.91,0-1.65-.74-1.65-1.65v-4.94h-3.29v8.24c0,.91-.74,1.65-1.65,1.65s-1.65-.74-1.65-1.65v-14.83c0-1.82,1.48-3.29,3.29-3.29v-1.65c0-.91.74-1.65,1.65-1.65s1.65.74,1.65,1.65v1.65h1.65c.91,0,1.65.74,1.65,1.65s-.74,1.65-1.65,1.65h-4.94v3.29h6.59c1.82,0,3.29,1.48,3.29,3.29s-1.48,3.29-3.29,3.29v1.65c0,.91-.74,1.65-1.65,1.65ZM65.27,188.04h-11.53c-.91,0-1.65-.74-1.65-1.65s.74-1.65,1.65-1.65h11.53v-3.29h-4.94c-.91,0-1.65-.74-1.65-1.65s.74-1.65,1.65-1.65h4.94c1.82,0,3.29,1.48,3.29,3.29v3.29c0,1.82-1.48,3.29-3.29,3.29ZM74.08,221.72c0,.91-.74,1.65-1.65,1.65s-1.65-.74-1.65-1.65v-1.65h-1.65c-.91,0-1.65-.74-1.65-1.65s.74-1.65,1.65-1.65h1.65c1.82,0,3.29,1.48,3.29,3.29v1.65ZM73.51,214.4c-.91,0-1.65-.74-1.65-1.65s.74-1.65,1.65-1.65,1.65.74,1.65,1.65-.74,1.65-1.65,1.65ZM76.8,207.81c-.91,0-1.65-.74-1.65-1.65s.74-1.65,1.65-1.65,1.65.74,1.65,1.65-.74,1.65-1.65,1.65ZM86.68,211.1h-1.65c0,1.82-1.48,3.29-3.29,3.29h-1.65c-.91,0-1.65-.74-1.65-1.65s.74-1.65,1.65-1.65h1.65v-4.94c0-.91.74-1.65,1.65-1.65s1.65.74,1.65,1.65v1.65h1.65c.91,0,1.65.74,1.65,1.65s-.74,1.65-1.65,1.65ZM89.98,214.4c-.91,0-1.65-.74-1.65-1.65s.74-1.65,1.65-1.65,1.65.74,1.65,1.65-.74,1.65-1.65,1.65ZM93.27,211.1c-.91,0-1.65-.74-1.65-1.65s.74-1.65,1.65-1.65,1.65.74,1.65,1.65-.74,1.65-1.65,1.65ZM93.27,204.51h-6.59c-.91,0-1.65-.74-1.65-1.65s.74-1.65,1.65-1.65h1.65s3.29,0,3.29,0h1.65c.91,0,1.65.74,1.65,1.65s-.74,1.65-1.65,1.65ZM94.92,199.57c0-.91.74-1.65,1.65-1.65h1.65c0-1.82,1.48-3.29,3.29-3.29v-1.65c0-.91.74-1.65,1.65-1.65s1.65.74,1.65,1.65v1.65c0,1.82-1.48,3.29-3.29,3.29,0,1.82-1.48,3.29-3.29,3.29h0s-1.65,0-1.65,0c-.91,0-1.65-.74-1.65-1.65ZM98.22,223.37c-.91,0-1.65-.74-1.65-1.65s.74-1.65,1.65-1.65,1.65.74,1.65,1.65-.74,1.65-1.65,1.65ZM101.51,220.08c-.91,0-1.65-.74-1.65-1.65s.74-1.65,1.65-1.65,1.65.74,1.65,1.65-.74,1.65-1.65,1.65ZM122.93,211.1h-4.94v1.65c0,.91-.74,1.65-1.65,1.65s-1.65-.74-1.65-1.65v-1.65h-6.59v1.65c0,.91-.74,1.65-1.65,1.65s-1.65-.74-1.65-1.65v-1.65h-3.29c-1.82,0-3.29-1.48-3.29-3.29s1.48-3.29,3.29-3.29v-1.65c0-.91.74-1.65,1.65-1.65s1.65.74,1.65,1.65v1.65c1.82,0,3.29,1.48,3.29,3.29h14.83c.91,0,1.65.74,1.65,1.65s-.74,1.65-1.65,1.65ZM108.1,194.63v-1.65c0-.91.74-1.65,1.65-1.65s1.65.74,1.65,1.65v1.65h3.29v-1.65c0-.91.74-1.65,1.65-1.65s1.65.74,1.65,1.65v1.65c0,1.82-1.48,3.29-3.29,3.29v3.29c0,1.82-1.48,3.29-3.29,3.29h-1.65c-.91,0-1.65-.74-1.65-1.65s.74-1.65,1.65-1.65h1.65v-3.29c-1.82,0-3.29-1.48-3.29-3.29ZM131.16,211.1c0,1.82-1.48,3.29-3.29,3.29h-1.65c-.91,0-1.65-.74-1.65-1.65s.74-1.65,1.65-1.65h1.65v-1.65c0-.91.74-1.65,1.65-1.65s1.65.74,1.65,1.65v1.65ZM136.11,211.1c-.91,0-1.65-.74-1.65-1.65v-1.65h-1.65c-.91,0-1.65-.74-1.65-1.65s.74-1.65,1.65-1.65h6.59c.91,0,1.65.74,1.65,1.65s-.74,1.65-1.65,1.65h-1.65v1.65c0,.91-.74,1.65-1.65,1.65ZM142.7,214.4h-3.29c-.91,0-1.65-.74-1.65-1.65s.74-1.65,1.65-1.65h3.29c.91,0,1.65.74,1.65,1.65s-.74,1.65-1.65,1.65ZM147.64,207.81v1.65c0,.91-.74,1.65-1.65,1.65s-1.65-.74-1.65-1.65v-3.29c0-.91.74-1.65,1.65-1.65s1.65.74,1.65,1.65v1.65ZM147.64,201.22h-3.29v1.65c0,.91-.74,1.65-1.65,1.65s-1.65-.74-1.65-1.65v-1.65h-16.47s-1.65,0-1.65,0c-.91,0-1.65-.74-1.65-1.65s.74-1.65,1.65-1.65h11.53v-3.29c-1.82,0-3.29-1.48-3.29-3.29v-3.29h-9.88v1.65c0,.91-.74,1.65-1.65,1.65s-1.65-.74-1.65-1.65v-1.65c-1.82,0-3.29-1.48-3.29-3.29h-6.59v4.94c0,.91-.74,1.65-1.65,1.65s-1.65-.74-1.65-1.65v-11.53c0-1.82,1.48-3.29,3.29-3.29v-3.29c0-1.82,1.48-3.29,3.29-3.29v-1.65c0-.91.74-1.65,1.65-1.65s1.65.74,1.65,1.65v1.65c0,1.82-1.48,3.29-3.29,3.29v3.29c1.82,0,3.29,1.48,3.29,3.29v3.29c1.82,0,3.29,1.48,3.29,3.29h13.18v-4.94c0-.91.74-1.65,1.65-1.65s1.65.74,1.65,1.65v4.94h3.29v-1.65c0-.91.74-1.65,1.65-1.65s1.65.74,1.65,1.65v1.65h3.29v-3.29h-1.65c-.91,0-1.65-.74-1.65-1.65s.74-1.65,1.65-1.65h1.65v-1.65c0-.91.74-1.65,1.65-1.65s1.65.74,1.65,1.65v1.65h4.94c.91,0,1.65.74,1.65,1.65s-.74,1.65-1.65,1.65h-4.94v3.29c1.82,0,3.29,1.48,3.29,3.29v3.29h1.65c.91,0,1.65.74,1.65,1.65s-.74,1.65-1.65,1.65h-1.65v3.29c0,1.82-1.48,3.29-3.29,3.29ZM147.64,173.21c0-.91.74-1.65,1.65-1.65h3.29c.91,0,1.65.74,1.65,1.65s-.74,1.65-1.65,1.65h-3.29c-.91,0-1.65-.74-1.65-1.65ZM159.17,204.51h-6.59c-.91,0-1.65-.74-1.65-1.65s.74-1.65,1.65-1.65h1.65v-1.65c0-.91.74-1.65,1.65-1.65s1.65.74,1.65,1.65v1.65h1.65c.91,0,1.65.74,1.65,1.65s-.74,1.65-1.65,1.65ZM162.47,201.22c-.91,0-1.65-.74-1.65-1.65s.74-1.65,1.65-1.65,1.65.74,1.65,1.65-.74,1.65-1.65,1.65ZM162.47,194.63h-1.65v1.65c0,.91-.74,1.65-1.65,1.65s-1.65-.74-1.65-1.65v-1.65c0-1.82,1.48-3.29,3.29-3.29h1.65c.91,0,1.65.74,1.65,1.65s-.74,1.65-1.65,1.65ZM162.47,181.45h-1.65v3.29c0,1.82-1.48,3.29-3.29,3.29h-1.65c-.91,0-1.65-.74-1.65-1.65s.74-1.65,1.65-1.65h1.65v-3.29c0-1.82,1.48-3.29,3.29-3.29h1.65c.91,0,1.65.74,1.65,1.65s-.74,1.65-1.65,1.65ZM162.47,168.27h-8.24c-1.82,0-3.29-1.48-3.29-3.29v-3.29h-3.29c0,1.82-1.48,3.29-3.29,3.29s-3.29-1.48-3.29-3.29h-1.65c-.91,0-1.65-.74-1.65-1.65s.74-1.65,1.65-1.65h4.94c0-1.82,1.48-3.29,3.29-3.29v-1.65c0-.91.74-1.65,1.65-1.65s1.65.74,1.65,1.65v4.94h3.29c1.82,0,3.29,1.48,3.29,3.29,1.82,0,3.29,1.48,3.29,3.29h1.65c.91,0,1.65.74,1.65,1.65s-.74,1.65-1.65,1.65ZM162.47,155.09h-1.65v1.65c0,.91-.74,1.65-1.65,1.65s-1.65-.74-1.65-1.65v-1.65c0-1.82,1.48-3.29,3.29-3.29h1.65c.91,0,1.65.74,1.65,1.65s-.74,1.65-1.65,1.65ZM164.11,143.56c0,.91-.74,1.65-1.65,1.65s-1.65-.74-1.65-1.65v-1.65h-1.65c-.91,0-1.65-.74-1.65-1.65s.74-1.65,1.65-1.65h1.65c1.82,0,3.29,1.48,3.29,3.29v1.65ZM164.11,122.14v8.24c0,.91-.74,1.65-1.65,1.65s-1.65-.74-1.65-1.65v-1.65h-1.65c-.91,0-1.65-.74-1.65-1.65s.74-1.65,1.65-1.65h1.65v-4.94c0-.91.74-1.65,1.65-1.65s1.65.74,1.65,1.65v1.65ZM163.17,90.97h-4.94c-.91,0-1.65-.74-1.65-1.65s.74-1.65,1.65-1.65h4.94c0-1.82,1.48-3.29,3.29-3.29s3.29,1.48,3.29,3.29h3.29v-3.29c-1.82,0-3.29-1.48-3.29-3.29v-11.53c0-.91.74-1.65,1.65-1.65s1.65.74,1.65,1.65v1.65h1.65c.91,0,1.65.74,1.65,1.65s-.74,1.65-1.65,1.65h-1.65v6.59c1.82,0,3.29,1.48,3.29,3.29v3.29h1.65c.91,0,1.65.74,1.65,1.65s-.74,1.65-1.65,1.65h-14.83ZM166.9,151.79c-.91,0-1.65-.74-1.65-1.65s.74-1.65,1.65-1.65,1.65.74,1.65,1.65-.74,1.65-1.65,1.65ZM168.55,155.09v-1.65c0-.91.74-1.65,1.65-1.65s1.65.74,1.65,1.65v1.65c0,1.82-1.48,3.29-3.29,3.29v1.65c0,.91-.74,1.65-1.65,1.65s-1.65-.74-1.65-1.65v-1.65c0-1.82,1.48-3.29,3.29-3.29ZM175.14,192.07c0,.91-.74,1.65-1.65,1.65s-1.65-.74-1.65-1.65.74-1.65,1.65-1.65,1.65.74,1.65,1.65ZM175.14,181.45v1.65c0,.91-.74,1.65-1.65,1.65s-1.65-.74-1.65-1.65v-4.94h-3.29v8.24c0,.91-.74,1.65-1.65,1.65s-1.65-.74-1.65-1.65v-14.83c0-1.82,1.48-3.29,3.29-3.29v-1.65c0-.91.74-1.65,1.65-1.65s1.65.74,1.65,1.65v1.65h1.65c.91,0,1.65.74,1.65,1.65s-.74,1.65-1.65,1.65h-4.94v3.29h6.59c1.82,0,3.29,1.48,3.29,3.29s-1.48,3.29-3.29,3.29ZM175.14,158.38h1.65c.91,0,1.65.74,1.65,1.65s-.74,1.65-1.65,1.65h-1.65v1.65c0,.91-.74,1.65-1.65,1.65s-1.65-.74-1.65-1.65v-1.65c0-1.82,1.48-3.29,3.29-3.29ZM173.49,145.2h-3.29c-.91,0-1.65-.74-1.65-1.65s.74-1.65,1.65-1.65h3.29c.91,0,1.65.74,1.65,1.65s-.74,1.65-1.65,1.65ZM181.73,140.26c0,.91-.74,1.65-1.65,1.65s-1.65-.74-1.65-1.65v-1.65c-1.82,0-3.29-1.48-3.29-3.29v-1.65c0-.91.74-1.65,1.65-1.65s1.65.74,1.65,1.65v1.65c1.82,0,3.29,1.48,3.29,3.29v1.65ZM186.67,135.32h-3.29c-.91,0-1.65-.74-1.65-1.65s.74-1.65,1.65-1.65h3.29c.91,0,1.65.74,1.65,1.65s-.74,1.65-1.65,1.65ZM188.32,128.73h-4.94c-.91,0-1.65-.74-1.65-1.65s.74-1.65,1.65-1.65h4.94v-3.29h-6.59v1.65c0,.91-.74,1.65-1.65,1.65s-1.65-.74-1.65-1.65v-1.65h-3.29v6.59c0,1.82-1.48,3.29-3.29,3.29v3.29c0,1.82-1.48,3.29-3.29,3.29v1.65c0,.91-.74,1.65-1.65,1.65s-1.65-.74-1.65-1.65v-1.65c0-1.82,1.48-3.29,3.29-3.29v-3.29h-1.65c-.91,0-1.65-.74-1.65-1.65s.74-1.65,1.65-1.65h1.65c0-1.82,1.48-3.29,3.29-3.29v-3.29h-1.65c-.91,0-1.65-.74-1.65-1.65s.74-1.65,1.65-1.65h18.12c1.82,0,3.29,1.48,3.29,3.29v3.29c0,1.82-1.48,3.29-3.29,3.29ZM201.5,146.3v1.65c0,.91-.74,1.65-1.65,1.65s-1.65-.74-1.65-1.65v-3.29c0-.91.74-1.65,1.65-1.65s1.65.74,1.65,1.65v1.65ZM201.5,136.97c0,.91-.74,1.65-1.65,1.65s-1.65-.74-1.65-1.65v-1.65h-3.29c-1.82,0-3.29-1.48-3.29-3.29v-1.65c0-.91.74-1.65,1.65-1.65s1.65.74,1.65,1.65v1.65h3.29c1.82,0,3.29,1.48,3.29,3.29v1.65ZM203.15,132.02c-.91,0-1.65-.74-1.65-1.65s.74-1.65,1.65-1.65,1.65.74,1.65,1.65-.74,1.65-1.65,1.65ZM203.15,118.85c-.91,0-1.65-.74-1.65-1.65s.74-1.65,1.65-1.65,1.65.74,1.65,1.65-.74,1.65-1.65,1.65Z"/>
    </g>
  </g>
</svg>