<?xml version="1.0" encoding="UTF-8"?>
<svg id="Livello_2" data-name="Livello 2" xmlns="http://www.w3.org/2000/svg" viewBox="0 0 288.99 226.77">
  <defs>
    <style>
      .cls-1 {
        fill: #362a1f;
      }

      .cls-2 {
        fill: #8b6c4f;
      }

      .cls-3 {
        fill: #6b8e23;
      }
    </style>
  </defs>
  <g id="Livello_1-2" data-name="Livello 1">
    <g>
      <g>
        <path class="cls-1" d="M.25,193.56c0-6.06.19-29.15.19-37.19,3.47,0,8.6.25,12.31.56,9.78.87,12.25,5.63,12.25,12.07,0,1.18-.19,8.85-.37,11.32-.56,7.05-4.58,9.22-9.84,10.77-1.49.43-3.09.87-4.95,1.18.06,2.17.06,4.27.06,6.62,0,1.92-.06,3.53-.12,4.89-1.73,0-6.68,0-9.78.31.06-1.3.25-6.87.25-10.52ZM12.87,182.98c1.73-.93,2.29-1.61,2.41-4.08.12-1.61.12-6.13.12-7.92,0-2.91-.25-5.07-2.54-5.82-.8-.25-2.04-.37-3.03-.37,0,2.91.06,12.81.06,19.06,1.24-.25,2.35-.56,2.97-.87Z"/>
        <path class="cls-1" d="M29.77,194.06c0-10.21.19-17.88.31-28.34-1.05.06-2.1.25-3.16.43,0-1.05.19-2.72.19-3.59,0-1.24-.06-3.09-.19-4.52,5.45-1.18,13.24-1.79,17.02-1.79,2.48,0,5.07.12,6.81.37,0,2.41.12,6.06.25,8.29-1.18-.06-3.47-.12-4.89-.12s-4.27.06-6.5.25c-.12,4.52-.12,6.68-.12,9.96,1.55-.06,4.21-.12,5.2-.12,1.3,0,2.66.12,3.59.25l.06,8.54c-1.73-.25-6.5-.25-8.85-.25v7.49c0,2.17.37,3.34,1.3,4.02,1.05.74,2.91.87,5.45.87,1.42,0,3.53-.12,4.46-.19.06,3.22.5,7.24.62,8.54-2.41.25-5.2.25-7.55.25-10.95,0-13.99-5.01-13.99-10.33Z"/>
        <path class="cls-1" d="M53.22,180.88c0-16.52,5.32-25.31,13.86-25.31,10.15,0,12.07,10.58,12.07,16.58,0,.43,0,1.55-.06,1.92h-2.35c-1.11,0-4.52.12-6.68.5v-1.3c0-2.66-.68-8.42-3.22-8.42-1.92,0-3.9,5.2-3.9,15.66,0,9.53,1.86,14.79,3.84,14.79,2.1,0,3.09-4.08,3.34-7.49.12-1.42.12-2.1.12-2.85,2.1,0,6.75,0,9.34-.37,0,16.27-7.49,19.99-13.24,19.99-8.91,0-13.12-9.22-13.12-23.7Z"/>
        <path class="cls-1" d="M83.23,195.11c0-6.81.31-13.99.31-23.76,0-3.22-.06-7.18-.06-14.91,1.86.06,2.85.12,4.46.12,1.42,0,3.9-.25,5.38-.5-.37,14.6-.56,23.08-.56,36.63,0,2.78.99,3.34,2.23,3.34.8,0,2.29-.19,3.9-.74,1.05-.43,1.86-1.3,1.98-3.9.31-4.64.43-10.15.43-15.16v-11.7c0-3.09-.12-5.63-.12-7.92,2.97,0,7.43-.37,10.02-.62-.25,7.49-.56,28.28-.56,36.02s-3.16,10.21-8.73,11.45c-1.18.25-6,1.11-9.41,1.11-5.45,0-9.28-3.22-9.28-9.47Z"/>
        <path class="cls-1" d="M115.1,188.67c0-1.05.06-1.61.06-1.92,4.27.56,6.25.68,7.92.68.99,0,1.49-.06,2.04-.06,0,2.35.37,8.17,2.6,8.17,1.67,0,3.22-2.54,3.22-9.28,0-1.36-.62-1.67-1.42-1.79-4.89-.74-7.55-.99-9.53-1.42-2.17-.5-5.26-1.49-5.26-6.25,0-6.25,1.73-16.03,7.49-19.74,1.49-.93,3.22-1.49,5.2-1.49,8.91,0,12.56,8.04,12.56,15.35,0,.8,0,1.55-.06,2.17-1.05,0-2.72-.12-3.77-.12-1.79,0-3.4.12-5.38.37,0-3.77-.74-8.6-3.34-8.6-.62,0-1.24.62-1.67,1.55-.93,1.98-1.42,5.38-1.42,7.92,0,.8.31,1.55,1.55,1.73,2.66.37,5.14.74,8.11,1.11,3.9.5,6.74,1.55,6.74,6.75,0,9.59-2.41,20.79-13.06,20.79-8.66,0-12.56-7.49-12.56-15.9Z"/>
        <path class="cls-1" d="M149.45,180.88c0-16.52,5.32-25.31,13.86-25.31,10.15,0,12.07,10.58,12.07,16.58,0,.43,0,1.55-.06,1.92h-2.35c-1.11,0-4.52.12-6.68.5v-1.3c0-2.66-.68-8.42-3.22-8.42-1.92,0-3.9,5.2-3.9,15.66,0,9.53,1.86,14.79,3.84,14.79,2.1,0,3.09-4.08,3.34-7.49.12-1.42.12-2.1.12-2.85,2.1,0,6.75,0,9.34-.37,0,16.27-7.49,19.99-13.24,19.99-8.91,0-13.12-9.22-13.12-23.7Z"/>
        <path class="cls-1" d="M198.21,183.97c-2.1.06-7.36.12-8.85.12,0,3.34.06,4.95.06,8.6s0,7.92.06,11.63c-1.18-.19-4.27-.25-5.2-.25-1.05,0-2.66.06-4.64.31.31-22.83.43-35.21.49-47.52,1.79,0,8.11-.31,9.65-.5-.12,11.26-.19,15.41-.31,19h2.78c2.29-.06,4.33-.06,6-.19l.25-18.81h5.82c.8,0,2.72,0,3.84-.19-.37,12.93-.5,25.74-.5,37.69,0,1.92,0,5.14.06,10.4-1.24,0-2.54-.06-3.65-.06-2.41,0-5.26.37-6.06.5l.19-20.73Z"/>
        <path class="cls-1" d="M229.03,193.38l-6.75.19c-.49,3.4-.99,6.87-1.42,10.4-1.3-.12-2.6-.12-3.71-.12-1.55,0-3.9.19-6.13.31,2.78-14.85,6.37-34.84,8.48-47.77,4.27,0,8.48-.19,13-.5,2.54,14.36,5.51,33.85,7.8,47.77-1.42,0-6.13.12-9.96.62-.37-3.47-.8-7.12-1.3-10.89ZM227.91,184.78c-.68-5.07-1.36-10.09-2.04-14.73-.68,4.89-1.48,9.78-2.23,14.85,1.55-.06,2.91-.12,4.27-.12Z"/>
        <path class="cls-1" d="M243.69,156.87c1.92,0,8.17-.31,9.78-.5-.31,12.87-.43,26.86-.43,37.44v10.4c-1.05-.12-3.34-.19-5.82-.19-1.73,0-2.97,0-4.02.25.25-15.28.49-30.63.49-47.4Z"/>
        <path class="cls-1" d="M259.35,156.68c3.16,0,8.54-.43,10.58-.74,2.1,6.75,5.51,15.59,9.65,25.37l-.43-24.88c1.73,0,6.5-.06,9.84-.37-.06,4.08-.19,30.32-.19,36.82,0,3.4.06,7.55.12,10.71h-1.98c-.74,0-4.46.12-6.56.62-3.28-8.6-8.04-17.76-11.82-27.91.06,2.6.06,4.33.06,9.16,0,2.17.06,5.07.06,10.95v7.61c-.56,0-1.61-.06-4.02-.06-2.1,0-3.77.12-5.63.37.12-15.28.25-31.62.31-47.65Z"/>
      </g>
      <g>
        <path class="cls-2" d="M33.24,216.19h-2.03v-1.92h6.15v1.92h-2.01v8.14c0,.9,0,1.54.02,2.23h-2.15c.02-.68.02-1.33.02-2.25v-8.12Z"/>
        <path class="cls-2" d="M40.1,216.52c0-.92,0-1.61-.02-2.25h3.15c2.29,0,3.13.85,3.13,3.22v1.35c0,1.47-.4,2.42-1.44,2.86.21.57.43,1.26.64,1.97.29.99.61,2.01.87,2.89h-2.32c-.16-.69-.35-1.49-.55-2.27l-.55-2.08h-.8v2.11c0,.9,0,1.56.02,2.23h-2.15c.02-.66.02-1.33.02-2.25v-7.79ZM42.21,216.11v4.28h.92c.73,0,1.06-.33,1.06-1.38v-1.52c0-1.06-.33-1.37-1.06-1.37h-.92Z"/>
        <path class="cls-2" d="M54.1,214.27c.29,2.56,1.14,9.49,1.52,12.29h-2.34l-.21-2.22h-1.94l-.21,2.22h-2.23c.38-2.8,1.23-9.73,1.52-12.29h3.88ZM51.32,222.53h1.59l-.21-2.13c-.12-1.45-.26-2.96-.38-4.22h-.42c-.12,1.28-.26,2.79-.4,4.26l-.19,2.09Z"/>
        <path class="cls-2" d="M57.89,223.45v-5.94c0-2.63.81-3.44,3.15-3.44s3.12.81,3.12,3.44v1.45l-2.08.05v-1.66c0-1.04-.33-1.38-1-1.38s-1.02.35-1.02,1.38v6.13c0,1.06.35,1.38,1.02,1.38s1.02-.33,1.02-1.38v-1.66l2.06.05v1.58c0,2.51-.76,3.32-3.12,3.32s-3.15-.81-3.15-3.32Z"/>
        <path class="cls-2" d="M66.86,223.45v-5.94c0-2.63.81-3.44,3.15-3.44s3.12.81,3.12,3.44v1.45l-2.08.05v-1.66c0-1.04-.33-1.38-1-1.38s-1.02.35-1.02,1.38v6.13c0,1.06.35,1.38,1.02,1.38s1.02-.33,1.02-1.38v-1.66l2.06.05v1.58c0,2.51-.76,3.32-3.12,3.32s-3.15-.81-3.15-3.32Z"/>
        <path class="cls-2" d="M76.09,216.52c0-.92,0-1.59-.02-2.25h2.15c-.02.66-.02,1.33-.02,2.27v7.79c0,.9,0,1.54.02,2.23h-2.15c.02-.68.02-1.33.02-2.25v-7.79Z"/>
        <path class="cls-2" d="M86.32,214.27c.29,2.56,1.14,9.49,1.52,12.29h-2.34l-.21-2.22h-1.94l-.21,2.22h-2.23c.38-2.8,1.23-9.73,1.52-12.29h3.88ZM83.53,222.53h1.59l-.21-2.13c-.12-1.45-.26-2.96-.38-4.22h-.42c-.12,1.28-.26,2.79-.4,4.26l-.19,2.09Z"/>
        <path class="cls-2" d="M92.2,224.19v2.37h-1.96v-2.37h1.96Z"/>
        <path class="cls-2" d="M99.97,224.33v-7.84c0-.9,0-1.47-.02-2.22h3.81l.61,4.74c.23,1.85.42,3.91.55,5.47h.14c.16-1.56.35-3.62.57-5.45l.61-4.76h3.62c-.02.76-.02,1.33-.02,2.27v7.77c0,.9,0,1.49.02,2.25h-2.13c.02-1.14.02-2.42.02-3.58,0-1.32.07-4.55.1-6.7h-.24c-.23,1.78-.52,4.07-.8,6.08l-.59,4.21h-2.6l-.62-4.24c-.28-1.99-.59-4.28-.81-6.04h-.29c.03,1.96.1,4.88.1,6.82,0,.99,0,2.3.02,3.46h-2.06c.02-.68.02-1.33.02-2.23Z"/>
        <path class="cls-2" d="M112.82,223.45v-6.06c0-2.51.81-3.32,3.24-3.32s3.22.81,3.22,3.32v6.06c0,2.51-.81,3.32-3.22,3.32s-3.24-.81-3.24-3.32ZM117.11,223.47v-6.09c0-1.06-.33-1.37-1.06-1.37s-1.07.31-1.07,1.37v6.09c0,1.06.35,1.4,1.07,1.4s1.06-.33,1.06-1.4Z"/>
        <path class="cls-2" d="M122.27,224.33v-7.82c0-.92,0-1.56-.02-2.23h3.05l.62,4.1c.29,2.03.59,4.24.81,5.89h.12c-.05-1.99-.12-5.44-.12-7.06v-2.93h1.85c-.02.68-.02,1.32-.02,2.22v7.84c0,.83.02,1.51.02,2.23h-3.03l-.61-3.7c-.33-2.25-.69-4.76-.95-6.51.05,2.04.12,5.35.12,7.27v2.94h-1.87c.02-.68.02-1.32.02-2.23Z"/>
        <path class="cls-2" d="M131.83,216.52c0-.92,0-1.59-.02-2.25h2.15c-.02.66-.02,1.33-.02,2.27v7.79c0,.9,0,1.54.02,2.23h-2.15c.02-.68.02-1.33.02-2.25v-7.79Z"/>
        <path class="cls-2" d="M138.7,216.19h-2.03v-1.92h6.15v1.92h-2.01v8.14c0,.9,0,1.54.02,2.23h-2.15c.02-.68.02-1.33.02-2.25v-8.12Z"/>
        <path class="cls-2" d="M145.15,223.45v-6.06c0-2.51.81-3.32,3.24-3.32s3.22.81,3.22,3.32v6.06c0,2.51-.81,3.32-3.22,3.32s-3.24-.81-3.24-3.32ZM149.45,223.47v-6.09c0-1.06-.33-1.37-1.06-1.37s-1.07.31-1.07,1.37v6.09c0,1.06.35,1.4,1.07,1.4s1.06-.33,1.06-1.4Z"/>
        <path class="cls-2" d="M154.61,216.52c0-.92,0-1.61-.02-2.25h3.15c2.29,0,3.13.85,3.13,3.22v1.35c0,1.47-.4,2.42-1.44,2.86.21.57.43,1.26.64,1.97.29.99.61,2.01.87,2.89h-2.32c-.16-.69-.35-1.49-.55-2.27l-.55-2.08h-.8v2.11c0,.9,0,1.56.02,2.23h-2.15c.02-.66.02-1.33.02-2.25v-7.79ZM156.72,216.11v4.28h.92c.73,0,1.06-.33,1.06-1.38v-1.52c0-1.06-.33-1.37-1.06-1.37h-.92Z"/>
        <path class="cls-2" d="M168.61,214.27c.29,2.56,1.14,9.49,1.52,12.29h-2.34l-.21-2.22h-1.94l-.21,2.22h-2.23c.38-2.8,1.23-9.73,1.52-12.29h3.88ZM165.82,222.53h1.59l-.21-2.13c-.12-1.45-.26-2.96-.38-4.22h-.42c-.12,1.28-.26,2.79-.4,4.26l-.19,2.09Z"/>
        <path class="cls-2" d="M174.49,224.19v2.37h-1.96v-2.37h1.96Z"/>
        <path class="cls-2" d="M183.25,226.56c-.29-2.56-1.14-9.49-1.52-12.29h2.32l.59,6.16c.14,1.45.28,2.96.4,4.22h.42c.12-1.28.26-2.79.38-4.26l.59-6.13h2.23c-.38,2.8-1.23,9.73-1.54,12.29h-3.86Z"/>
        <path class="cls-2" d="M195.73,214.27c.29,2.56,1.14,9.49,1.52,12.29h-2.34l-.21-2.22h-1.94l-.21,2.22h-2.23c.38-2.8,1.23-9.73,1.52-12.29h3.88ZM192.95,222.53h1.59l-.21-2.13c-.12-1.45-.26-2.96-.38-4.22h-.42c-.12,1.28-.26,2.79-.4,4.26l-.19,2.09Z"/>
        <path class="cls-2" d="M199.96,226.56c.02-.76.02-1.47.02-2.54v-7.55c0-.9,0-1.54-.02-2.2h2.15c-.02.68-.02,1.33-.02,2.25v8.12h.88c.52,0,.93,0,1.63-.02v1.94h-4.64Z"/>
        <path class="cls-2" d="M206.9,223.45v-6.06c0-2.51.81-3.32,3.24-3.32s3.22.81,3.22,3.32v6.06c0,2.51-.81,3.32-3.22,3.32s-3.24-.81-3.24-3.32ZM211.19,223.47v-6.09c0-1.06-.33-1.37-1.06-1.37s-1.07.31-1.07,1.37v6.09c0,1.06.35,1.4,1.07,1.4s1.06-.33,1.06-1.4Z"/>
        <path class="cls-2" d="M216.35,216.52c0-.92,0-1.61-.02-2.25h3.15c2.28,0,3.13.85,3.13,3.22v1.35c0,1.47-.4,2.42-1.44,2.86.21.57.43,1.26.64,1.97.29.99.61,2.01.87,2.89h-2.32c-.16-.69-.35-1.49-.55-2.27l-.55-2.08h-.8v2.11c0,.9,0,1.56.02,2.23h-2.15c.02-.66.02-1.33.02-2.25v-7.79ZM218.46,216.11v4.28h.92c.73,0,1.06-.33,1.06-1.38v-1.52c0-1.06-.33-1.37-1.06-1.37h-.92Z"/>
        <path class="cls-2" d="M225.49,216.52c0-.92,0-1.59-.02-2.25h2.15c-.02.66-.02,1.33-.02,2.27v7.79c0,.9,0,1.54.02,2.23h-2.15c.02-.68.02-1.33.02-2.25v-7.79Z"/>
        <path class="cls-2" d="M236.05,224.66v1.9h-5.56v-2.58l2.11-4.81c.38-.69.81-1.56,1.26-2.39v-.62h-.83c-.76,0-1.45,0-2.46.02v-1.9h5.38v2.58l-1.99,4.36c-.35.81-.87,1.78-1.38,2.74v.73h.93c1.02,0,1.63,0,2.53-.02Z"/>
        <path class="cls-2" d="M244.13,224.66v1.9h-5.56v-2.58l2.11-4.81c.38-.69.81-1.56,1.26-2.39v-.62h-.83c-.76,0-1.45,0-2.46.02v-1.9h5.38v2.58l-1.99,4.36c-.35.81-.87,1.78-1.38,2.74v.73h.93c1.02,0,1.63,0,2.53-.02Z"/>
        <path class="cls-2" d="M251.89,214.27c.29,2.56,1.14,9.49,1.52,12.29h-2.34l-.21-2.22h-1.94l-.21,2.22h-2.23c.38-2.8,1.23-9.73,1.52-12.29h3.88ZM249.1,222.53h1.59l-.21-2.13c-.12-1.45-.26-2.96-.38-4.22h-.42c-.12,1.28-.26,2.79-.4,4.26l-.19,2.09Z"/>
        <path class="cls-2" d="M257.77,224.19v2.37h-1.96v-2.37h1.96Z"/>
      </g>
      <g>
        <path class="cls-3" d="M83.48,34.02v-2.04h-2.16c-.1.68-.18,1.36-.24,2.04h2.4Z"/>
        <path class="cls-3" d="M154.58,137.89c.55,0,.99.43,1.02.97.39-.08.78-.17,1.17-.26.29-.07.59-.13.88-.2v-.51c-1.13,0-2.04-.91-2.04-2.04h-4.09c0,1.13-.91,2.04-2.04,2.04,0,1.13-.91,2.04-2.04,2.04v.26c1.99-.22,4.03-.52,6.13-.92v-.36c0-.56.46-1.02,1.02-1.02Z"/>
        <path class="cls-3" d="M177.06,59.39h-4.09c-1.69,0-3.06,1.37-3.06,3.06v4.09c0,1.69,1.37,3.06,3.06,3.06h4.09c1.69,0,3.06-1.37,3.06-3.06v-4.09c0-1.69-1.37-3.06-3.06-3.06ZM175.01,67.57c-1.69,0-3.06-1.37-3.06-3.06s1.37-3.06,3.06-3.06,3.06,1.37,3.06,3.06-1.37,3.06-3.06,3.06Z"/>
        <path class="cls-3" d="M83.48,42.19v-2.04h-2.77c-.02.53-.05,1.01-.08,1.42-.01.21-.03.41-.04.62h2.89Z"/>
        <path class="cls-3" d="M118.83,127.84v-4.09c0-1.69-1.37-3.06-3.06-3.06h-4.09c-1.69,0-3.06,1.37-3.06,3.06v4.09c0,1.69,1.37,3.06,3.06,3.06h4.09c1.69,0,3.06-1.37,3.06-3.06ZM110.66,125.8c0-1.69,1.37-3.06,3.06-3.06s3.06,1.37,3.06,3.06-1.37,3.06-3.06,3.06-3.06-1.37-3.06-3.06Z"/>
        <path class="cls-3" d="M92.34,107.01v-2.04h-2.56c.62,1.42,1.27,2.81,1.96,4.18.19-.06.4-.09.61-.09v-2.04Z"/>
        <path class="cls-3" d="M83.48,75.74v-2.04h-1.97c.2,1.52.42,3.04.67,4.55.35-.29.81-.47,1.3-.47v-2.04Z"/>
        <path class="cls-3" d="M162.8,11.54v1.02h2.04c1.13,0,2.04.91,2.04,2.04,1.13,0,2.04.91,2.04,2.04h4.09v-2.04h-3.06c-.56,0-1.02-.46-1.02-1.02s.46-1.02,1.02-1.02h3.06c1.13,0,2.04.91,2.04,2.04h2.04v-2.04c0-1.13.91-2.04,2.04-2.04v-.94c-.29-.37-.58-.74-.88-1.11h-1.16v1.02c0,.56-.46,1.02-1.02,1.02s-1.02-.46-1.02-1.02v-3.06h-5.11c-.56,0-1.02-.46-1.02-1.02s.46-1.02,1.02-1.02h4.69c-.78-.78-1.55-1.49-2.31-2.1-.1.04-.22.06-.33.06h-3.06c0,1.13-.91,2.04-2.04,2.04v2.04h1.02c.56,0,1.02.46,1.02,1.02s-.46,1.02-1.02,1.02h-3.06c-1.01,0-1.84-.73-2.01-1.68l-.86,3.75c.47.09.83.51.83,1ZM169.95,8.48h2.04c.56,0,1.02.46,1.02,1.02s-.46,1.02-1.02,1.02h-2.04c-.56,0-1.02-.46-1.02-1.02s.46-1.02,1.02-1.02Z"/>
        <path class="cls-3" d="M167.86,116.6h-2.04v6.13h6.13v-6.13h-4.09ZM168.89,120.69c-.56,0-1.02-.46-1.02-1.02s.46-1.02,1.02-1.02,1.02.46,1.02,1.02-.46,1.02-1.02,1.02Z"/>
        <path class="cls-3" d="M111.68,69.61h4.09c1.69,0,3.06-1.37,3.06-3.06v-4.09c0-1.69-1.37-3.06-3.06-3.06h-4.09c-1.69,0-3.06,1.37-3.06,3.06v4.09c0,1.69,1.37,3.06,3.06,3.06ZM113.72,61.44c1.69,0,3.06,1.37,3.06,3.06s-1.37,3.06-3.06,3.06-3.06-1.37-3.06-3.06,1.37-3.06,3.06-3.06Z"/>
        <path class="cls-3" d="M164.84,1.3v1.05h2.04c0-1.13.91-2.04,2.04-2.04v-.04c-.93-.31-1.8-.37-2.58-.09-.07.04-.14.06-.21.08-.47.21-.9.55-1.3,1.03Z"/>
        <path class="cls-3" d="M137.22,73.7h3.06s.05,0,.08,0c-.96-.85-2.02-1.81-3.14-2.85v2.85Z"/>
        <path class="cls-3" d="M140.28,75.74h-1.02v2.04h2.04c0-.96.66-1.76,1.54-1.98-.48-.39-1.01-.82-1.57-1.3.02.07.02.14.02.22,0,.56-.46,1.02-1.02,1.02Z"/>
        <polygon class="cls-3" points="151.52 65.52 151.52 63.48 149.86 63.48 149.39 65.52 149.48 65.52 151.52 65.52"/>
        <path class="cls-3" d="M162.8,18.69v-1.02c0-.56.46-1.02,1.02-1.02s1.02.46,1.02,1.02v3.06h2.04v-4.09c-1.13,0-2.04-.91-2.04-2.04h-2.04v1.02c0,.56-.46,1.02-1.02,1.02-.51,0-.93-.37-1.01-.85l-.66,2.9h2.69Z"/>
        <path class="cls-3" d="M208.58,82.05c-.06-3.52-.38-7.12-.95-10.77-.15-.18-.24-.41-.24-.66v-.79c-.01-.08-.03-.15-.04-.23h-.98c-.56,0-1.02-.46-1.02-1.02s.46-1.02,1.02-1.02h.6c-.14-.68-.28-1.37-.43-2.06-.05,0-.11.01-.16.01-.56,0-1.02-.46-1.02-1.02v-1.02c0-.46.15-.88.4-1.22-.14-.54-.28-1.08-.43-1.62-.1.45-.51.79-.99.79-.56,0-1.02-.46-1.02-1.02v-2.04c0-.56.46-1.02,1.02-1.02.01,0,.02,0,.03,0-.34-1.09-.69-2.19-1.07-3.28h-4.74v1.02c0,.56-.46,1.02-1.02,1.02s-1.02-.46-1.02-1.02v-1.02c0-1.13.91-2.04,2.04-2.04h2.04v-3.06c0-.37.2-.69.49-.87-.14-.34-.27-.68-.41-1.03-.65-.34-1.1-1.02-1.1-1.81v-.81c-.18-.41-.36-.83-.54-1.24h-2.52c-.56,0-1.02-.46-1.02-1.02s.46-1.02,1.02-1.02h1.02c0-.3.07-.59.19-.85-.21-.45-.43-.91-.65-1.36-.16.11-.35.17-.56.17-.56,0-1.02-.46-1.02-1.02v-2.04c0-.09.01-.17.03-.25-.82-1.62-1.68-3.25-2.57-4.86h-2.57c-.56,0-1.02-.46-1.02-1.02s.46-1.02,1.02-1.02h1.02v-.71c-.3-.52-.6-1.03-.9-1.55-.68-.33-1.15-1.03-1.15-1.84v-.09c-.39-.65-.79-1.31-1.2-1.96h-.84v1.02c0,.56-.46,1.02-1.02,1.02s-1.02-.46-1.02-1.02v-1.02h-1.02c-.56,0-1.02-.46-1.02-1.02s.46-1.02,1.02-1.02h1.02v-2.04h-2.04v1.02c0,.56-.46,1.02-1.02,1.02s-1.02-.46-1.02-1.02v-1.02c0-1.13.91-2.04,2.04-2.04v-1.02c0-.12.02-.24.06-.35-.26-.38-.52-.76-.8-1.15-.35.3-.81.48-1.31.48h-2.04c0,1.13-.91,2.04-2.04,2.04,0,1.13-.91,2.04-2.04,2.04v2.04h1.02c.56,0,1.02.46,1.02,1.02s-.46,1.02-1.02,1.02h-1.02v2.04c0,1.13-.91,2.04-2.04,2.04h-2.04v1.02c0,.56-.46,1.02-1.02,1.02s-1.02-.46-1.02-1.02v-1.02c0-1.13.91-2.04,2.04-2.04h2.04v-2.04h-1.02c-.56,0-1.02-.46-1.02-1.02s.46-1.02,1.02-1.02h1.02v-2.04h-4.09v4.09c0,1.13-.91,2.04-2.04,2.04h-2.04c-1.13,0-2.04-.91-2.04-2.04-1.13,0-2.04-.91-2.04-2.04h-1.02s-.06,0-.09,0l-.51,2.25c.17-.13.38-.2.61-.2.56,0,1.02.46,1.02,1.02s-.46,1.02-1.02,1.02c-.39,0-.73-.22-.9-.55l-2.71,11.83c.42.13.72.52.72.98v5.11h1.02c.56,0,1.02.46,1.02,1.02s-.46,1.02-1.02,1.02h-1.02c-1.13,0-2.04-.91-2.04-2.04h-.07l-2.07,9.04c.51.06.9.49.9,1.01v1.02h1.02c.56,0,1.02.46,1.02,1.02s-.46,1.02-1.02,1.02h-1.02c-.67,0-1.27-.33-1.64-.83l-.72,3.15c.2.19.32.45.32.74v1.02c1.13,0,2.04.91,2.04,2.04,1.13,0,2.04.91,2.04,2.04v2.04c0,1.13-.91,2.04-2.04,2.04h-4.09v4.09h2.04v-1.02c0-.56.46-1.02,1.02-1.02s1.02.46,1.02,1.02v1.02h2.04v-2.04c0-1.13.91-2.04,2.04-2.04h1.02c.56,0,1.02.46,1.02,1.02s-.46,1.02-1.02,1.02h-1.02v2.04c0,1.13-.91,2.04-2.04,2.04h-2.04v1.02c0,.56-.46,1.02-1.02,1.02s-1.02-.46-1.02-1.02v-1.02h-2.04c0,1.13-.91,2.04-2.04,2.04,0,.63-.29,1.2-.74,1.57l-.1.44c-.14.17-.42.17-.83,0-.12.02-.24.03-.37.03v2.04c0,1.13-.91,2.04-2.04,2.04s-2.04-.91-2.04-2.04h-2.04c-1.13,0-2.04-.91-2.04-2.04v-2.04c-1.13,0-2.04-.91-2.04-2.04v-4.77c-.49-.46-.99-.94-1.5-1.43-.17.05-.36.07-.55.07v3.06c0,.56-.46,1.02-1.02,1.02s-1.02-.46-1.02-1.02v-1.02h-1.02c-.56,0-1.02-.46-1.02-1.02s.46-1.02,1.02-1.02h1.02c0-.71.36-1.33.91-1.7-.33-.32-.66-.64-.99-.96-.16.36-.52.62-.94.62-.56,0-1.02-.46-1.02-1.02v-1.02c0-.15.02-.31.05-.45-1.38-1.35-2.8-2.76-4.25-4.2-.17.33-.51.56-.91.56-.56,0-1.02-.46-1.02-1.02,0-.4.23-.74.56-.91-2.56-2.55-5.19-5.18-7.81-7.8-.37.43-.93.7-1.54.7v2.04c0,1.13-.91,2.04-2.04,2.04h-1.02c-.56,0-1.02-.46-1.02-1.02s.46-1.02,1.02-1.02h1.02v-2.04c-1.13,0-2.04-.91-2.04-2.04v-1.02c0-.56.46-1.02,1.02-1.02s1.02.46,1.02,1.02v1.02h2.04v-.2c-1.37-1.37-2.74-2.73-4.09-4.07v1.2c0,.56-.46,1.02-1.02,1.02s-1.02-.46-1.02-1.02v-3.22c-.69-.68-1.37-1.35-2.04-2.01v2.17c0,1.13-.91,2.04-2.04,2.04,0,1.13-.91,2.04-2.04,2.04h-2.04c-1.13,0-2.04-.91-2.04-2.04h-3.06c-.56,0-1.02-.46-1.02-1.02s.46-1.02,1.02-1.02h3.06c0-1.13.91-2.04,2.04-2.04h1.02c.56,0,1.02.46,1.02,1.02s-.46,1.02-1.02,1.02h-1.02v2.04h2.04c0-1.13.91-2.04,2.04-2.04v-4.09c-1.13,0-2.04-.91-2.04-2.04-1.1,0-2-.87-2.04-1.96-.03-.03-.06-.06-.09-.08h-1.96v1.02c0,.56-.46,1.02-1.02,1.02s-1.02-.46-1.02-1.02v-3.06c0-.48.17-.92.44-1.27-1.68-1.53-3.21-2.87-4.53-3.95-2.2-1.8-3.85-2.9-4.72-3.02-1.49-.21-2.61.42-3.46,1.57-.13.17-.25.35-.36.55-.35.59-.65,1.28-.9,2.04-.21.64-.39,1.33-.54,2.04h5.88v-1.02c0-.56.46-1.02,1.02-1.02s1.02.46,1.02,1.02v3.06h1.02c.56,0,1.02.46,1.02,1.02s-.46,1.02-1.02,1.02h-1.02c-1.13,0-2.04-.91-2.04-2.04h-2.04v2.04c1.13,0,2.04.91,2.04,2.04v1.02c0,.56-.46,1.02-1.02,1.02s-1.02-.46-1.02-1.02v-1.02h-4.61c-.05.71-.08,1.39-.11,2.04h2.68c1.13,0,2.04.91,2.04,2.04v2.04c0,1.13-.91,2.04-2.04,2.04h-3.01c-.02.42-.04.84-.06,1.26.25-.11.53-.18.83-.18,1.13,0,2.04.91,2.04,2.04h1.02c.56,0,1.02.46,1.02,1.02s-.46,1.02-1.02,1.02h-1.02c0,1.13-.91,2.04-2.04,2.04v9.19c0,.49-.35.9-.81,1,.07,1.44.17,2.88.28,4.32.12-.05.25-.08.39-.08h1.02v-5.11c0-.56.46-1.02,1.02-1.02s1.02.46,1.02,1.02v1.02h3.06c.56,0,1.02.46,1.02,1.02s-.46,1.02-1.02,1.02h-3.06v2.04c0,1.13-.91,2.04-2.04,2.04h-1.02c-.08,0-.16,0-.23-.03.11,1.26.24,2.51.39,3.77.06,0,.12,0,.18,0h4.09c0-1.13.91-2.04,2.04-2.04h1.02c.56,0,1.02.46,1.02,1.02s-.46,1.02-1.02,1.02h-1.02c0,1.13-.91,2.04-2.04,2.04v2.04h1.02c.56,0,1.02.46,1.02,1.02s-.46,1.02-1.02,1.02h-1.02c0,1.13-.91,2.04-2.04,2.04v3.06c0,.29-.12.55-.31.73.05.26.11.52.16.78h2.47v-1.02c0-.56.46-1.02,1.02-1.02s1.02.46,1.02,1.02v1.02c0,1.13-.91,2.04-2.04,2.04v1.02c0,.56-.46,1.02-1.02,1.02-.2,0-.4-.06-.55-.16.2.8.4,1.6.61,2.39.04-.53.48-.95,1.02-.95s1.02.46,1.02,1.02v1.02h2.04v-2.04c0-1.13.91-2.04,2.04-2.04v-2.04h-1.02c-.56,0-1.02-.46-1.02-1.02s.46-1.02,1.02-1.02h5.11c0-1.13.91-2.04,2.04-2.04v-1.02c0-.56.46-1.02,1.02-1.02s1.02.46,1.02,1.02v1.02c1.13,0,2.04.91,2.04,2.04v6.13h1.02c.56,0,1.02.46,1.02,1.02s-.46,1.02-1.02,1.02h-1.02c0,1.13-.91,2.04-2.04,2.04v4.09h3.06c.56,0,1.02.46,1.02,1.02s-.46,1.02-1.02,1.02h-1.02c0,1.13-.91,2.04-2.04,2.04h-3.06c-.56,0-1.02-.46-1.02-1.02s.46-1.02,1.02-1.02h1.02v-6.13c0-1.13.91-2.04,2.04-2.04v-6.13h-6.13v2.04c0,1.13-.91,2.04-2.04,2.04v2.04h1.02c.56,0,1.02.46,1.02,1.02s-.46,1.02-1.02,1.02h-1.02v3.06c0,.56-.46,1.02-1.02,1.02s-1.02-.46-1.02-1.02v-3.06h-2.04v2.04c0,.33-.08.64-.22.91.7,2.1,1.45,4.16,2.27,6.17.1-.04.22-.06.33-.06h7.15c1.13,0,2.04.91,2.04,2.04h2.04c1.13,0,2.04.91,2.04,2.04h1.02c.56,0,1.02.46,1.02,1.02s-.46,1.02-1.02,1.02h-1.02c-1.13,0-2.04-.91-2.04-2.04h-2.04c0,1.13-.91,2.04-2.04,2.04h-2.04c0,1-.71,1.82-1.65,2.01,1.08,2.02,2.25,3.97,3.49,5.83.3-.76,1.04-1.31,1.91-1.31h1.02c.56,0,1.02.46,1.02,1.02s-.46,1.02-1.02,1.02h-1.02v1.02c0,.24-.09.47-.23.64.72.99,1.47,1.95,2.24,2.88v-.46c0-1.13.91-2.04,2.04-2.04,0-1.13.91-2.04,2.04-2.04h1.02c.56,0,1.02.46,1.02,1.02s-.46,1.02-1.02,1.02h-1.02c0,1.13-.91,2.04-2.04,2.04v1.02c0,.46-.31.85-.72.98,1.63,1.84,3.37,3.55,5.22,5.13-.06-.32-.1-.66-.1-1v-4.09c0-2.82,2.29-5.11,5.11-5.11h4.09c2.82,0,5.11,2.29,5.11,5.11v4.09c0,2.82-2.29,5.11-5.11,5.11h-3.57c1.49.95,3.03,1.82,4.63,2.6.13-.42.52-.72.98-.72h1.02v-1.02c0-.56.46-1.02,1.02-1.02s1.02.46,1.02,1.02v3.5c2.42.92,4.97,1.66,7.64,2.21v-2.64c0-.56.46-1.02,1.02-1.02s1.02.46,1.02,1.02v1.02h0v1.99c.81.13,1.63.25,2.46.34.18-.18.44-.29.72-.29h1.02v-2.04c-1.13,0-2.04-.91-2.04-2.04v-1.02c0-.56.46-1.02,1.02-1.02s1.02.46,1.02,1.02v1.02h2.04v-1.02c0-.56.46-1.02,1.02-1.02s1.02.46,1.02,1.02v1.02c0,1.13-.91,2.04-2.04,2.04v2.04c0,.21-.03.41-.09.6,1.52.08,3.07.1,4.66.07.14-.39.52-.67.96-.67h1.02c0-1.13.91-2.04,2.04-2.04h2.04c0-1.13.91-2.04,2.04-2.04,0-1.13.91-2.04,2.04-2.04h4.09c1.13,0,2.04.91,2.04,2.04,1.13,0,2.04.91,2.04,2.04v.02c1.05-.27,2.08-.54,3.09-.83-.01-.07-.02-.14-.02-.21v-1.02h-1.02c-.56,0-1.02-.46-1.02-1.02s.46-1.02,1.02-1.02h1.02c1.13,0,2.04.91,2.04,2.04v.64c.85-.26,1.69-.53,2.51-.8-.28-.18-.47-.5-.47-.86,0-.56.46-1.02,1.02-1.02s1.02.46,1.02,1.02c0,.12-.02.23-.06.33,2.03-.71,3.97-1.48,5.82-2.28-.38-.15-.66-.52-.66-.95,0-.56.46-1.02,1.02-1.02h3.83c.43-.22.86-.44,1.28-.67v-2.4c0-.56.46-1.02,1.02-1.02s1.02.46,1.02,1.02v1.26c1.58-.91,3.07-1.86,4.5-2.85h-1.74c-1.13,0-2.04-.91-2.04-2.04v-5.11c0-.56.46-1.02,1.02-1.02s1.02.46,1.02,1.02v1.02c1.13,0,2.04.91,2.04,2.04,1.13,0,2.04.91,2.04,2.04v.33c3.17-2.45,5.92-5.1,8.28-7.94-.04,0-.07,0-.11,0h-7.15c-.56,0-1.02-.46-1.02-1.02s.46-1.02,1.02-1.02h7.15v-2.04h-3.06c-.56,0-1.02-.46-1.02-1.02s.46-1.02,1.02-1.02h3.06c1.13,0,2.04.91,2.04,2.04v1.59c1.78-2.46,3.29-5.03,4.54-7.72h-.45c-1.13,0-2.04-.91-2.04-2.04h-2.04v2.04c1.13,0,2.04.91,2.04,2.04v1.02c0,.56-.46,1.02-1.02,1.02s-1.02-.46-1.02-1.02v-1.02h-5.11c-.56,0-1.02-.46-1.02-1.02s.46-1.02,1.02-1.02h3.06v-2.04h-4.09v1.02c0,.56-.46,1.02-1.02,1.02s-1.02-.46-1.02-1.02v-1.02c0-1.13.91-2.04,2.04-2.04v-2.04c0-1.13.91-2.04,2.04-2.04h2.04v-2.04h-4.09v1.02c0,.56-.46,1.02-1.02,1.02s-1.02-.46-1.02-1.02v-1.02c-1.13,0-2.04-.91-2.04-2.04h-1.02c-.56,0-1.02-.46-1.02-1.02s.46-1.02,1.02-1.02h1.02v-1.02c0-.56.46-1.02,1.02-1.02s1.02.46,1.02,1.02v1.02h2.04v-3.06c0-.56.46-1.02,1.02-1.02s1.02.46,1.02,1.02v1.02h2.04v-2.04h-1.02c-.56,0-1.02-.46-1.02-1.02s.46-1.02,1.02-1.02h1.02v-1.02c0-.56.46-1.02,1.02-1.02s1.02.46,1.02,1.02v1.02h1.02c.56,0,1.02.46,1.02,1.02s-.46,1.02-1.02,1.02h-1.02v2.04c0,1.13-.91,2.04-2.04,2.04h-2.04v2.04h4.09v-1.02c0-.56.46-1.02,1.02-1.02s1.02.46,1.02,1.02v1.02c1.13,0,2.04.91,2.04,2.04,1.13,0,2.04.91,2.04,2.04v1.02c0,.56-.46,1.02-1.02,1.02s-1.02-.46-1.02-1.02v-1.02h-2.04c0,1.13-.91,2.04-2.04,2.04h-4.09v2.04h6.13v-1.02c0-.56.46-1.02,1.02-1.02s1.02.46,1.02,1.02v3.06h1.02c.11,0,.21.02.31.05,1.21-2.92,2.12-5.96,2.77-9.1.88-4.25,1.25-8.68,1.18-13.24ZM154.58,59.39c-.56,0-1.02-.46-1.02-1.02s.46-1.02,1.02-1.02,1.02.46,1.02,1.02-.46,1.02-1.02,1.02ZM96.76,38.1c.56,0,1.02.46,1.02,1.02s-.46,1.02-1.02,1.02-1.02-.46-1.02-1.02.46-1.02,1.02-1.02ZM84.29,54.28v1.02c0,.56-.46,1.02-1.02,1.02s-1.02-.46-1.02-1.02v-2.04c0-.56.46-1.02,1.02-1.02s1.02.46,1.02,1.02v1.02ZM96.07,88.19c.56,0,1.02.46,1.02,1.02s-.46,1.02-1.02,1.02-1.02-.46-1.02-1.02.46-1.02,1.02-1.02ZM92.04,102.02h-2.04c-.56,0-1.02-.46-1.02-1.02s.46-1.02,1.02-1.02h2.04c.56,0,1.02.46,1.02,1.02s-.46,1.02-1.02,1.02ZM94.09,97.19c-.56,0-1.02-.46-1.02-1.02s.46-1.02,1.02-1.02,1.02.46,1.02,1.02-.46,1.02-1.02,1.02ZM104.59,125.8c-.56,0-1.02-.46-1.02-1.02s.46-1.02,1.02-1.02,1.02.46,1.02,1.02-.46,1.02-1.02,1.02ZM191.05,118.08h2.04c.56,0,1.02.46,1.02,1.02s-.46,1.02-1.02,1.02h-2.04c-.56,0-1.02-.46-1.02-1.02s.46-1.02,1.02-1.02ZM204.33,69.61c.56,0,1.02.46,1.02,1.02s-.46,1.02-1.02,1.02-1.02-.46-1.02-1.02.46-1.02,1.02-1.02ZM204.33,77.78c.56,0,1.02.46,1.02,1.02s-.46,1.02-1.02,1.02-1.02-.46-1.02-1.02.46-1.02,1.02-1.02ZM202.28,77.78c-.56,0-1.02-.46-1.02-1.02s.46-1.02,1.02-1.02,1.02.46,1.02,1.02-.46,1.02-1.02,1.02ZM204.33,75.74c-.56,0-1.02-.46-1.02-1.02s.46-1.02,1.02-1.02,1.02.46,1.02,1.02-.46,1.02-1.02,1.02ZM203.31,64.5v3.06c0,1.13-.91,2.04-2.04,2.04v1.02c0,.56-.46,1.02-1.02,1.02s-1.02-.46-1.02-1.02v-3.06c0-1.13.91-2.04,2.04-2.04v-1.02c0-.56.46-1.02,1.02-1.02s1.02.46,1.02,1.02ZM201.26,57.35c.56,0,1.02.46,1.02,1.02s-.46,1.02-1.02,1.02-1.02-.46-1.02-1.02.46-1.02,1.02-1.02ZM199.89,62.15c0,.56-.46,1.02-1.02,1.02s-1.02-.46-1.02-1.02.46-1.02,1.02-1.02,1.02.46,1.02,1.02ZM197.18,57.35h1.02c.56,0,1.02.46,1.02,1.02s-.46,1.02-1.02,1.02h-3.06v2.04c0,1.13-.91,2.04-2.04,2.04h-2.04v2.04h1.02c.56,0,1.02.46,1.02,1.02s-.46,1.02-1.02,1.02h-1.02v1.02c0,.56-.46,1.02-1.02,1.02s-1.02-.46-1.02-1.02v-1.02h-3.06c-.56,0-1.02-.46-1.02-1.02s.46-1.02,1.02-1.02h1.02c0-1.13.91-2.04,2.04-2.04,0-1.13.91-2.04,2.04-2.04h2.04v-2.04h-4.09c0,1.13-.91,2.04-2.04,2.04h-3.06c-.56,0-1.02-.46-1.02-1.02s.46-1.02,1.02-1.02h1.02c0-1.13.91-2.04,2.04-2.04h10.22ZM196.82,65.21c-.56,0-1.02-.46-1.02-1.02s.46-1.02,1.02-1.02,1.02.46,1.02,1.02-.46,1.02-1.02,1.02ZM197.53,69.61c0,.56-.46,1.02-1.02,1.02h-1.02v1.02c0,.56-.46,1.02-1.02,1.02s-1.02-.46-1.02-1.02v-1.02c0-1.13.91-2.04,2.04-2.04h1.02c.56,0,1.02.46,1.02,1.02ZM186.3,70.63c.56,0,1.02.46,1.02,1.02s-.46,1.02-1.02,1.02h-1.02c-1.13,0-2.04-.91-2.04-2.04v-1.02c0-.56.46-1.02,1.02-1.02s1.02.46,1.02,1.02v1.02h1.02ZM192.07,46.28c.56,0,1.02.46,1.02,1.02s-.46,1.02-1.02,1.02-1.02-.46-1.02-1.02.46-1.02,1.02-1.02ZM189.36,41.17h-3.06c-.56,0-1.02-.46-1.02-1.02s.46-1.02,1.02-1.02h3.06c1.13,0,2.04.91,2.04,2.04h1.02c.56,0,1.02.46,1.02,1.02s-.46,1.02-1.02,1.02h-1.02c-1.13,0-2.04-.91-2.04-2.04ZM192.31,50.45h1.02c1.13,0,2.04.91,2.04,2.04v1.02c0,.56-.46,1.02-1.02,1.02s-1.02-.46-1.02-1.02v-1.02h-1.02c-.56,0-1.02-.46-1.02-1.02s.46-1.02,1.02-1.02ZM195.21,48.72c0-1.13.91-2.04,2.04-2.04h1.02c.56,0,1.02.46,1.02,1.02s-.46,1.02-1.02,1.02h-1.02v1.02c0,.56-.46,1.02-1.02,1.02s-1.02-.46-1.02-1.02v-1.02ZM195.13,45.25c0,.56-.46,1.02-1.02,1.02s-1.02-.46-1.02-1.02.46-1.02,1.02-1.02,1.02.46,1.02,1.02ZM192.43,35.04c.56,0,1.02.46,1.02,1.02v2.04c0,.56-.46,1.02-1.02,1.02s-1.02-.46-1.02-1.02v-2.04c0-.56.46-1.02,1.02-1.02ZM190.38,33c.56,0,1.02.46,1.02,1.02s-.46,1.02-1.02,1.02-1.02-.46-1.02-1.02.46-1.02,1.02-1.02ZM189.36,31.97c0,.56-.46,1.02-1.02,1.02s-1.02-.46-1.02-1.02.46-1.02,1.02-1.02,1.02.46,1.02,1.02ZM188.34,26.87c.56,0,1.02.46,1.02,1.02s-.46,1.02-1.02,1.02-1.02-.46-1.02-1.02.46-1.02,1.02-1.02ZM182.21,24.82c.56,0,1.02.46,1.02,1.02s-.46,1.02-1.02,1.02-1.02-.46-1.02-1.02.46-1.02,1.02-1.02ZM178.12,18.69c.56,0,1.02.46,1.02,1.02s-.46,1.02-1.02,1.02-1.02-.46-1.02-1.02.46-1.02,1.02-1.02ZM178.12,22.78c.56,0,1.02.46,1.02,1.02s-.46,1.02-1.02,1.02-1.02-.46-1.02-1.02.46-1.02,1.02-1.02ZM172,28.91h3.06c0-1.13.91-2.04,2.04-2.04h2.04c1.13,0,2.04.91,2.04,2.04h2.04v-1.02c0-.56.46-1.02,1.02-1.02s1.02.46,1.02,1.02v1.02h1.02c.56,0,1.02.46,1.02,1.02s-.46,1.02-1.02,1.02h-1.02c0,1.13-.91,2.04-2.04,2.04,0,1.13-.91,2.04-2.04,2.04h-2.04v2.04h4.09c0-1.13.91-2.04,2.04-2.04v-1.02c0-.56.46-1.02,1.02-1.02s1.02.46,1.02,1.02v1.02h1.02c.56,0,1.02.46,1.02,1.02s-.46,1.02-1.02,1.02h-3.06c0,1.13-.91,2.04-2.04,2.04v1.02c0,.56-.46,1.02-1.02,1.02s-1.02-.46-1.02-1.02v-1.02h-2.04c0,1.13-.91,2.04-2.04,2.04v1.02c0,.56-.46,1.02-1.02,1.02s-1.02-.46-1.02-1.02v-1.02c0-1.13.91-2.04,2.04-2.04v-4.09c0-1.13.91-2.04,2.04-2.04v-2.04h-7.15c-.56,0-1.02-.46-1.02-1.02s.46-1.02,1.02-1.02ZM176.04,85.95v1.02c0,.56-.46,1.02-1.02,1.02s-1.02-.46-1.02-1.02v-1.02c0-1.13.91-2.04,2.04-2.04,0-1.13.91-2.04,2.04-2.04h1.02c.56,0,1.02.46,1.02,1.02s-.46,1.02-1.02,1.02h-1.02c0,1.13-.91,2.04-2.04,2.04ZM178.08,91.06c0,.56-.46,1.02-1.02,1.02s-1.02-.46-1.02-1.02.46-1.02,1.02-1.02,1.02.46,1.02,1.02ZM169.91,88v-3.06c0-.56.46-1.02,1.02-1.02s1.02.46,1.02,1.02v3.06c1.13,0,2.04.91,2.04,2.04v1.02c0,.56-.46,1.02-1.02,1.02s-1.02-.46-1.02-1.02v-1.02c-1.13,0-2.04-.91-2.04-2.04ZM171.95,82.89c0-.56.46-1.02,1.02-1.02s1.02.46,1.02,1.02-.46,1.02-1.02,1.02-1.02-.46-1.02-1.02ZM175.01,92.08c.56,0,1.02.46,1.02,1.02s-.46,1.02-1.02,1.02-1.02-.46-1.02-1.02.46-1.02,1.02-1.02ZM175.01,79.83c.56,0,1.02.46,1.02,1.02s-.46,1.02-1.02,1.02-1.02-.46-1.02-1.02.46-1.02,1.02-1.02ZM173.99,76.76c0-.56.46-1.02,1.02-1.02s1.02.46,1.02,1.02-.46,1.02-1.02,1.02-1.02-.46-1.02-1.02ZM177.06,71.65h-4.09c-2.82,0-5.11-2.29-5.11-5.11v-4.09c0-2.82,2.29-5.11,5.11-5.11h4.09c2.82,0,5.11,2.29,5.11,5.11v4.09c0,2.82-2.29,5.11-5.11,5.11ZM174.22,38.57c-.56,0-1.02-.46-1.02-1.02s.46-1.02,1.02-1.02,1.02.46,1.02,1.02-.46,1.02-1.02,1.02ZM176.08,52.41v-1.02c0-1.13.91-2.04,2.04-2.04,0-1.13.91-2.04,2.04-2.04h1.02c.56,0,1.02.46,1.02,1.02s-.46,1.02-1.02,1.02h-1.02c0,1.13-.91,2.04-2.04,2.04v1.02c0,.56-.46,1.02-1.02,1.02s-1.02-.46-1.02-1.02ZM177.1,44.23c0-.56.46-1.02,1.02-1.02s1.02.46,1.02,1.02-.46,1.02-1.02,1.02-1.02-.46-1.02-1.02ZM181.19,44.23c0-.56.46-1.02,1.02-1.02s1.02.46,1.02,1.02-.46,1.02-1.02,1.02-1.02-.46-1.02-1.02ZM169.95,30.95c.56,0,1.02.46,1.02,1.02v1.02h3.06c.56,0,1.02.46,1.02,1.02s-.46,1.02-1.02,1.02h-3.06c-1.13,0-2.04-.91-2.04-2.04v-1.02c0-.56.46-1.02,1.02-1.02ZM172.22,38.57v2.04c0,.56-.46,1.02-1.02,1.02s-1.02-.46-1.02-1.02v-2.04c0-.56.46-1.02,1.02-1.02s1.02.46,1.02,1.02ZM159.92,38.1c-.56,0-1.02-.46-1.02-1.02s.46-1.02,1.02-1.02h1.02c1.13,0,2.04.91,2.04,2.04v2.04h3.06c.56,0,1.02.46,1.02,1.02s-.46,1.02-1.02,1.02h-3.06v1.02c0,.56-.46,1.02-1.02,1.02s-1.02-.46-1.02-1.02v-5.11h-1.02ZM165.02,37.08c0-.56.46-1.02,1.02-1.02s1.02.46,1.02,1.02-.46,1.02-1.02,1.02-1.02-.46-1.02-1.02ZM167.07,45.25c0,.56-.46,1.02-1.02,1.02s-1.02-.46-1.02-1.02.46-1.02,1.02-1.02,1.02.46,1.02,1.02ZM166.04,48.82c.56,0,1.02.46,1.02,1.02s-.46,1.02-1.02,1.02-1.02-.46-1.02-1.02.46-1.02,1.02-1.02ZM167.07,43.21c0-.56.46-1.02,1.02-1.02s1.02.46,1.02,1.02-.46,1.02-1.02,1.02-1.02-.46-1.02-1.02ZM168.09,40.15c-.56,0-1.02-.46-1.02-1.02s.46-1.02,1.02-1.02,1.02.46,1.02,1.02-.46,1.02-1.02,1.02ZM158.72,34.02c0-.56.46-1.02,1.02-1.02h1.02v-2.04c-1.13,0-2.04-.91-2.04-2.04s.91-2.04,2.04-2.04,2.04.91,2.04,2.04h2.04v-1.02c0-.56.46-1.02,1.02-1.02s1.02.46,1.02,1.02v1.02h1.02c.56,0,1.02.46,1.02,1.02s-.46,1.02-1.02,1.02h-5.11v2.04h1.02c.56,0,1.02.46,1.02,1.02s-.46,1.02-1.02,1.02h-4.09c-.56,0-1.02-.46-1.02-1.02ZM156.85,50.28c-.56,0-1.02-.46-1.02-1.02s.46-1.02,1.02-1.02h1.02c0-1.13.91-2.04,2.04-2.04h3.06c.56,0,1.02.46,1.02,1.02s-.46,1.02-1.02,1.02h-1.02v2.04c1.13,0,2.04.91,2.04,2.04,1.13,0,2.04.91,2.04,2.04h4.09c0-1.13.91-2.04,2.04-2.04v-2.04h-2.04v1.02c0,.56-.46,1.02-1.02,1.02s-1.02-.46-1.02-1.02v-1.02c0-1.13.91-2.04,2.04-2.04v-3.06c0-.56.46-1.02,1.02-1.02s1.02.46,1.02,1.02v3.06c1.13,0,2.04.91,2.04,2.04v2.04c0,1.13-.91,2.04-2.04,2.04,0,1.13-.91,2.04-2.04,2.04h-4.09c-1.13,0-2.04-.91-2.04-2.04-1.13,0-2.04-.91-2.04-2.04h-2.04c-1.13,0-2.04-.91-2.04-2.04h-1.02ZM158.67,65.52c-.56,0-1.02-.46-1.02-1.02s.46-1.02,1.02-1.02h1.02v-2.04c-1.13,0-2.04-.91-2.04-2.04s.91-2.04,2.04-2.04,2.04.91,2.04,2.04h2.04v-1.02c0-.56.46-1.02,1.02-1.02s1.02.46,1.02,1.02v4.09c0,.56-.46,1.02-1.02,1.02s-1.02-.46-1.02-1.02v-1.02h-2.04v5.11c0,.56-.46,1.02-1.02,1.02s-1.02-.46-1.02-1.02v-1.02h-1.02ZM162.76,69.61c-.56,0-1.02-.46-1.02-1.02s.46-1.02,1.02-1.02h1.02c1.13,0,2.04.91,2.04,2.04v3.06c0,.56-.46,1.02-1.02,1.02s-1.02-.46-1.02-1.02v-3.06h-1.02ZM157.65,75.74c0-1.13.91-2.04,2.04-2.04v-3.06c0-.56.46-1.02,1.02-1.02s1.02.46,1.02,1.02v7.15h2.04c0-1.13.91-2.04,2.04-2.04h4.09c0-1.13.91-2.04,2.04-2.04h1.02c.56,0,1.02.46,1.02,1.02s-.46,1.02-1.02,1.02h-1.02c0,1.13-.91,2.04-2.04,2.04v2.04h1.02c.56,0,1.02.46,1.02,1.02s-.46,1.02-1.02,1.02h-1.02c0,1.13-.91,2.04-2.04,2.04v3.06c0,.56-.46,1.02-1.02,1.02s-1.02-.46-1.02-1.02v-1.02h-1.02c-.56,0-1.02-.46-1.02-1.02s.46-1.02,1.02-1.02h1.02c0-1.13.91-2.04,2.04-2.04v-4.09h-2.04v2.04c0,1.13-.91,2.04-2.04,2.04,0,1.13-.91,2.04-2.04,2.04v1.02c0,.56-.46,1.02-1.02,1.02s-1.02-.46-1.02-1.02v-1.02h-1.02c-.56,0-1.02-.46-1.02-1.02s.46-1.02,1.02-1.02h1.02v-2.04c-1.13,0-2.04-.91-2.04-2.04v-2.04ZM164.8,88c.56,0,1.02.46,1.02,1.02s-.46,1.02-1.02,1.02-1.02-.46-1.02-1.02.46-1.02,1.02-1.02ZM162.76,88c-.56,0-1.02-.46-1.02-1.02s.46-1.02,1.02-1.02,1.02.46,1.02,1.02-.46,1.02-1.02,1.02ZM168.89,92.08h-2.04c-.56,0-1.02-.46-1.02-1.02s.46-1.02,1.02-1.02h2.04c.56,0,1.02.46,1.02,1.02s-.46,1.02-1.02,1.02ZM169.91,95.15c0,.56-.46,1.02-1.02,1.02h-2.04c-.56,0-1.02-.46-1.02-1.02s.46-1.02,1.02-1.02h2.04c.56,0,1.02.46,1.02,1.02ZM159.69,86.98c0,.56-.46,1.02-1.02,1.02s-1.02-.46-1.02-1.02.46-1.02,1.02-1.02,1.02.46,1.02,1.02ZM156.63,79.83c.56,0,1.02.46,1.02,1.02s-.46,1.02-1.02,1.02-1.02-.46-1.02-1.02.46-1.02,1.02-1.02ZM154.58,75.74c.56,0,1.02.46,1.02,1.02s-.46,1.02-1.02,1.02-1.02-.46-1.02-1.02.46-1.02,1.02-1.02ZM150.5,75.74c.56,0,1.02.46,1.02,1.02s-.46,1.02-1.02,1.02-1.02-.46-1.02-1.02.46-1.02,1.02-1.02ZM146.41,81.87h1.02c0-1.13.91-2.04,2.04-2.04h1.02c.56,0,1.02.46,1.02,1.02s-.46,1.02-1.02,1.02h-1.02v2.04h2.04v-1.02c0-.56.46-1.02,1.02-1.02s1.02.46,1.02,1.02v1.02h1.02c.56,0,1.02.46,1.02,1.02s-.46,1.02-1.02,1.02h-1.02v2.04h2.04c1.13,0,2.04.91,2.04,2.04h2.04v-1.02c0-.56.46-1.02,1.02-1.02s1.02.46,1.02,1.02v5.11c1.13,0,2.04.91,2.04,2.04h1.02c.56,0,1.02.46,1.02,1.02s-.46,1.02-1.02,1.02h-1.02c0,1.13-.91,2.04-2.04,2.04h-6.13v1.02c0,.56-.46,1.02-1.02,1.02s-1.02-.46-1.02-1.02v-1.02c-1.13,0-2.04-.91-2.04-2.04h-4.09v3.06c0,.56-.46,1.02-1.02,1.02s-1.02-.46-1.02-1.02v-1.02c-1.13,0-2.04-.91-2.04-2.04v-3.06c0-.56.46-1.02,1.02-1.02s1.02.46,1.02,1.02v1.02h6.13c1.13,0,2.04.91,2.04,2.04h6.13v-6.13h-2.04c-1.13,0-2.04-.91-2.04-2.04h-2.04v1.02c0,.56-.46,1.02-1.02,1.02s-1.02-.46-1.02-1.02v-1.02h-3.06c-.56,0-1.02-.46-1.02-1.02s.46-1.02,1.02-1.02h3.06v-2.04h-2.04c-1.13,0-2.04-.91-2.04-2.04h-1.02c-.56,0-1.02-.46-1.02-1.02s.46-1.02,1.02-1.02ZM168.89,106.39c.56,0,1.02.46,1.02,1.02s-.46,1.02-1.02,1.02h-1.02c0,1.13-.91,2.04-2.04,2.04h-1.02c-.56,0-1.02-.46-1.02-1.02s.46-1.02,1.02-1.02h1.02v-5.11c0-.56.46-1.02,1.02-1.02s1.02.46,1.02,1.02v3.06h1.02ZM169.91,105.36c0-.56.46-1.02,1.02-1.02s1.02.46,1.02,1.02-.46,1.02-1.02,1.02-1.02-.46-1.02-1.02ZM157.65,108.43h-1.02c-.56,0-1.02-.46-1.02-1.02s.46-1.02,1.02-1.02h3.06v-2.04c0-1.13.91-2.04,2.04-2.04h1.02c.56,0,1.02.46,1.02,1.02s-.46,1.02-1.02,1.02h-1.02v5.11c0,.56-.46,1.02-1.02,1.02s-1.02-.46-1.02-1.02v-1.02h-2.04ZM154.58,108.43c.56,0,1.02.46,1.02,1.02s-.46,1.02-1.02,1.02-1.02-.46-1.02-1.02.46-1.02,1.02-1.02ZM153.56,105.36c0-.56.46-1.02,1.02-1.02s1.02.46,1.02,1.02-.46,1.02-1.02,1.02-1.02-.46-1.02-1.02ZM156.63,110.47c.56,0,1.02.46,1.02,1.02s-.46,1.02-1.02,1.02-1.02-.46-1.02-1.02.46-1.02,1.02-1.02ZM155.6,103.32c0-.56.46-1.02,1.02-1.02s1.02.46,1.02,1.02-.46,1.02-1.02,1.02-1.02-.46-1.02-1.02ZM144.37,104.34c-.56,0-1.02-.46-1.02-1.02s.46-1.02,1.02-1.02,1.02.46,1.02,1.02-.46,1.02-1.02,1.02ZM145.39,107.41c0,.56-.46,1.02-1.02,1.02s-1.02-.46-1.02-1.02.46-1.02,1.02-1.02,1.02.46,1.02,1.02ZM146.41,88c-.56,0-1.02-.46-1.02-1.02s.46-1.02,1.02-1.02,1.02.46,1.02,1.02-.46,1.02-1.02,1.02ZM147.43,92.08h3.06c.56,0,1.02.46,1.02,1.02s-.46,1.02-1.02,1.02h-4.09c-.56,0-1.02-.46-1.02-1.02s.46-1.02,1.02-1.02h1.02ZM154.58,94.13c-.56,0-1.02-.46-1.02-1.02s.46-1.02,1.02-1.02,1.02.46,1.02,1.02-.46,1.02-1.02,1.02ZM156.63,94.13c.56,0,1.02.46,1.02,1.02s-.46,1.02-1.02,1.02-1.02-.46-1.02-1.02.46-1.02,1.02-1.02ZM144.37,83.91c.56,0,1.02.46,1.02,1.02s-.46,1.02-1.02,1.02-1.02-.46-1.02-1.02.46-1.02,1.02-1.02ZM131.09,94.13v-10.22c0-1.13.91-2.04,2.04-2.04v-1.02c0-.56.46-1.02,1.02-1.02s1.02.46,1.02,1.02v3.06c0,1.13-.91,2.04-2.04,2.04v4.09h2.04v-2.04c0-1.13.91-2.04,2.04-2.04,0-1.13.91-2.04,2.04-2.04v-1.02c0-.56.46-1.02,1.02-1.02s1.02.46,1.02,1.02v3.06h1.02c.56,0,1.02.46,1.02,1.02s-.46,1.02-1.02,1.02h-1.02v1.02c0,.56-.46,1.02-1.02,1.02s-1.02-.46-1.02-1.02v-1.02h-2.04v2.04c0,1.13-.91,2.04-2.04,2.04h-2.04v3.06c0,.56-.46,1.02-1.02,1.02s-1.02-.46-1.02-1.02v-1.02ZM135.17,98.21h-1.02c-.56,0-1.02-.46-1.02-1.02s.46-1.02,1.02-1.02h1.02v-1.02c0-.56.46-1.02,1.02-1.02s1.02.46,1.02,1.02v1.02h3.06c.56,0,1.02.46,1.02,1.02s-.46,1.02-1.02,1.02h-1.02v1.02c0,.56-.46,1.02-1.02,1.02s-1.02-.46-1.02-1.02v-1.02h-2.04ZM137.22,93.11c0-.56.46-1.02,1.02-1.02s1.02.46,1.02,1.02-.46,1.02-1.02,1.02-1.02-.46-1.02-1.02ZM140.28,100.26c.56,0,1.02.46,1.02,1.02s-.46,1.02-1.02,1.02-1.02-.46-1.02-1.02.46-1.02,1.02-1.02ZM132.11,114.56h3.06c0-1.13.91-2.04,2.04-2.04h1.02c.56,0,1.02.46,1.02,1.02s-.46,1.02-1.02,1.02h-1.02v2.04h2.04c0-1.13.91-2.04,2.04-2.04v-4.09c-1.13,0-2.04-.91-2.04-2.04-1.13,0-2.04-.91-2.04-2.04h-2.04v1.02c0,.56-.46,1.02-1.02,1.02s-1.02-.46-1.02-1.02v-3.06c0-1.13.91-2.04,2.04-2.04v-1.02c0-.56.46-1.02,1.02-1.02s1.02.46,1.02,1.02v1.02c1.13,0,2.04.91,2.04,2.04v2.04c1.13,0,2.04.91,2.04,2.04,1.13,0,2.04.91,2.04,2.04v4.09c0,1.13-.91,2.04-2.04,2.04,0,1.13-.91,2.04-2.04,2.04h-2.04c-1.13,0-2.04-.91-2.04-2.04h-3.06c-.56,0-1.02-.46-1.02-1.02s.46-1.02,1.02-1.02ZM133.13,111.49c0-.56.46-1.02,1.02-1.02s1.02.46,1.02,1.02-.46,1.02-1.02,1.02-1.02-.46-1.02-1.02ZM133.13,120.69v-1.02c0-.56.46-1.02,1.02-1.02s1.02.46,1.02,1.02v1.02h1.02c.56,0,1.02.46,1.02,1.02s-.46,1.02-1.02,1.02h-7.15c-1.13,0-2.04-.91-2.04-2.04h-2.04v2.04c1.13,0,2.04.91,2.04,2.04s-.91,2.04-2.04,2.04v3.06c0,.56-.46,1.02-1.02,1.02s-1.02-.46-1.02-1.02v-12.26c0-.56.46-1.02,1.02-1.02s1.02.46,1.02,1.02v1.02h2.04c1.13,0,2.04.91,2.04,2.04h4.09ZM131.09,125.8c0,.56-.46,1.02-1.02,1.02s-1.02-.46-1.02-1.02.46-1.02,1.02-1.02,1.02.46,1.02,1.02ZM120.87,108.43h-3.06c-.56,0-1.02-.46-1.02-1.02s.46-1.02,1.02-1.02h3.06v-2.04h-4.09v1.02c0,.56-.46,1.02-1.02,1.02s-1.02-.46-1.02-1.02v-1.02c0-1.13.91-2.04,2.04-2.04v-2.04c0-1.13.91-2.04,2.04-2.04h2.04v-2.04h-4.09v1.02c0,.56-.46,1.02-1.02,1.02s-1.02-.46-1.02-1.02v-1.02c-1.13,0-2.04-.91-2.04-2.04h-1.02c-.56,0-1.02-.46-1.02-1.02s.46-1.02,1.02-1.02h1.02v-1.02c0-.56.46-1.02,1.02-1.02s1.02.46,1.02,1.02v1.02h2.04v-3.06c0-.56.46-1.02,1.02-1.02s1.02.46,1.02,1.02v1.02h2.04v-2.04h-1.02c-.56,0-1.02-.46-1.02-1.02s.46-1.02,1.02-1.02h1.02v-1.02c0-.56.46-1.02,1.02-1.02s1.02.46,1.02,1.02v1.02h1.02c.56,0,1.02.46,1.02,1.02s-.46,1.02-1.02,1.02h-1.02v2.04c0,1.13-.91,2.04-2.04,2.04h-2.04v2.04h4.09v-1.02c0-.56.46-1.02,1.02-1.02s1.02.46,1.02,1.02v1.02c1.13,0,2.04.91,2.04,2.04,1.13,0,2.04.91,2.04,2.04v1.02c0,.56-.46,1.02-1.02,1.02s-1.02-.46-1.02-1.02v-1.02h-2.04c0,1.13-.91,2.04-2.04,2.04h-4.09v2.04h6.13v-1.02c0-.56.46-1.02,1.02-1.02s1.02.46,1.02,1.02v3.06h1.02c.56,0,1.02.46,1.02,1.02s-.46,1.02-1.02,1.02h-1.02c-1.13,0-2.04-.91-2.04-2.04h-2.04v2.04c1.13,0,2.04.91,2.04,2.04v1.02c0,.56-.46,1.02-1.02,1.02s-1.02-.46-1.02-1.02v-1.02h-2.04ZM109.63,94.13c.56,0,1.02.46,1.02,1.02v1.02c0,1.13-.91,2.04-2.04,2.04v1.02c0,.56-.46,1.02-1.02,1.02s-1.02-.46-1.02-1.02v-1.02c0-1.13.91-2.04,2.04-2.04v-1.02c0-.56.46-1.02,1.02-1.02ZM108.61,89.02c0-.56.46-1.02,1.02-1.02h2.04c.56,0,1.02.46,1.02,1.02s-.46,1.02-1.02,1.02h-2.04c-.56,0-1.02-.46-1.02-1.02ZM110.66,100.26c0-1.13.91-2.04,2.04-2.04h1.02c.56,0,1.02.46,1.02,1.02s-.46,1.02-1.02,1.02h-1.02v1.02c0,.56-.46,1.02-1.02,1.02s-1.02-.46-1.02-1.02v-1.02ZM116.79,85.95v1.02c0,.56-.46,1.02-1.02,1.02s-1.02-.46-1.02-1.02v-1.02c-1.13,0-2.04-.91-2.04-2.04v-1.02c0-.56.46-1.02,1.02-1.02s1.02.46,1.02,1.02v1.02c1.13,0,2.04.91,2.04,2.04ZM116.79,82.89c0-.56.46-1.02,1.02-1.02h2.04c.56,0,1.02.46,1.02,1.02s-.46,1.02-1.02,1.02h-2.04c-.56,0-1.02-.46-1.02-1.02ZM128.02,114.56c.56,0,1.02.46,1.02,1.02s-.46,1.02-1.02,1.02h-1.02c-1.13,0-2.04-.91-2.04-2.04v-2.04c0-1.13.91-2.04,2.04-2.04h1.02c.56,0,1.02.46,1.02,1.02s-.46,1.02-1.02,1.02h-1.02v2.04h1.02ZM130.07,116.6c.56,0,1.02.46,1.02,1.02s-.46,1.02-1.02,1.02-1.02-.46-1.02-1.02.46-1.02,1.02-1.02ZM130.07,114.56c-.56,0-1.02-.46-1.02-1.02s.46-1.02,1.02-1.02,1.02.46,1.02,1.02-.46,1.02-1.02,1.02ZM130.07,108.43c-.56,0-1.02-.46-1.02-1.02s.46-1.02,1.02-1.02,1.02.46,1.02,1.02-.46,1.02-1.02,1.02ZM130.07,104.34c-.56,0-1.02-.46-1.02-1.02s.46-1.02,1.02-1.02,1.02.46,1.02,1.02-.46,1.02-1.02,1.02ZM130.07,81.87c-.56,0-1.02-.46-1.02-1.02s.46-1.02,1.02-1.02,1.02.46,1.02,1.02-.46,1.02-1.02,1.02ZM128.02,77.78c.56,0,1.02.46,1.02,1.02s-.46,1.02-1.02,1.02-1.02-.46-1.02-1.02.46-1.02,1.02-1.02ZM127,74.72c0-.56.46-1.02,1.02-1.02s1.02.46,1.02,1.02-.46,1.02-1.02,1.02-1.02-.46-1.02-1.02ZM125.98,77.78c-.56,0-1.02-.46-1.02-1.02s.46-1.02,1.02-1.02,1.02.46,1.02,1.02-.46,1.02-1.02,1.02ZM124.96,80.85v1.02h2.04c1.13,0,2.04.91,2.04,2.04v1.02c0,.56-.46,1.02-1.02,1.02s-1.02-.46-1.02-1.02v-1.02h-2.04c-1.13,0-2.04-.91-2.04-2.04v-1.02c0-.56.46-1.02,1.02-1.02s1.02.46,1.02,1.02ZM129.04,91.06c0,.56-.46,1.02-1.02,1.02s-1.02-.46-1.02-1.02.46-1.02,1.02-1.02,1.02.46,1.02,1.02ZM130.07,71.65c.56,0,1.02.46,1.02,1.02s-.46,1.02-1.02,1.02-1.02-.46-1.02-1.02.46-1.02,1.02-1.02ZM128.02,69.61c.56,0,1.02.46,1.02,1.02s-.46,1.02-1.02,1.02-1.02-.46-1.02-1.02.46-1.02,1.02-1.02ZM122.92,69.61v-2.04c0-1.13.91-2.04,2.04-2.04v-1.02c0-.56.46-1.02,1.02-1.02s1.02.46,1.02,1.02v3.06c0,1.13-.91,2.04-2.04,2.04v1.02c0,.56-.46,1.02-1.02,1.02s-1.02-.46-1.02-1.02v-1.02ZM122.92,75.74v2.04c0,1.13-.91,2.04-2.04,2.04h-3.06c-.56,0-1.02-.46-1.02-1.02s.46-1.02,1.02-1.02h3.06v-2.04h-4.09v1.02c0,.56-.46,1.02-1.02,1.02s-1.02-.46-1.02-1.02v-1.02h-2.04v4.09c0,1.13-.91,2.04-2.04,2.04v2.04c0,1.13-.91,2.04-2.04,2.04v1.02c0,.56-.46,1.02-1.02,1.02s-1.02-.46-1.02-1.02v-1.02c0-1.13.91-2.04,2.04-2.04v-2.04h-1.02c-.56,0-1.02-.46-1.02-1.02s.46-1.02,1.02-1.02h1.02c0-1.13.91-2.04,2.04-2.04v-2.04h-1.02c-.56,0-1.02-.46-1.02-1.02s.46-1.02,1.02-1.02h11.24c1.13,0,2.04.91,2.04,2.04ZM118.83,54.65c.56,0,1.02.46,1.02,1.02s-.46,1.02-1.02,1.02-1.02-.46-1.02-1.02.46-1.02,1.02-1.02ZM114.74,54.65c.56,0,1.02.46,1.02,1.02s-.46,1.02-1.02,1.02-1.02-.46-1.02-1.02.46-1.02,1.02-1.02ZM111.68,57.35h4.09c2.82,0,5.11,2.29,5.11,5.11v4.09c0,2.82-2.29,5.11-5.11,5.11h-4.09c-2.82,0-5.11-2.29-5.11-5.11v-4.09c0-2.82,2.29-5.11,5.11-5.11ZM102.89,50.36h1.02c0-1.13.91-2.04,2.04-2.04v-1.02c0-.56.46-1.02,1.02-1.02s1.02.46,1.02,1.02v1.02c0,1.13-.91,2.04-2.04,2.04,0,1.13-.91,2.04-2.04,2.04h0s-1.02,0-1.02,0c-.56,0-1.02-.46-1.02-1.02s.46-1.02,1.02-1.02ZM100.84,52.41c.56,0,1.02.46,1.02,1.02s-.46,1.02-1.02,1.02h-4.09c-.56,0-1.02-.46-1.02-1.02s.46-1.02,1.02-1.02h1.02s2.04,0,2.04,0h1.02ZM91.02,61.79c.56,0,1.02.46,1.02,1.02s-.46,1.02-1.02,1.02-1.02-.46-1.02-1.02.46-1.02,1.02-1.02ZM89.61,55.47c0-.56.46-1.02,1.02-1.02s1.02.46,1.02,1.02-.46,1.02-1.02,1.02-1.02-.46-1.02-1.02ZM91.31,69.85c.56,0,1.02.46,1.02,1.02s-.46,1.02-1.02,1.02-1.02-.46-1.02-1.02.46-1.02,1.02-1.02ZM92.04,64.86c0-.56.46-1.02,1.02-1.02s1.02.46,1.02,1.02-.46,1.02-1.02,1.02-1.02-.46-1.02-1.02ZM93.35,67.8c.56,0,1.02.46,1.02,1.02s-.46,1.02-1.02,1.02-1.02-.46-1.02-1.02.46-1.02,1.02-1.02ZM93.69,60.58h-1.02c-.56,0-1.02-.46-1.02-1.02s.46-1.02,1.02-1.02h1.02v-3.06c0-.56.46-1.02,1.02-1.02s1.02.46,1.02,1.02v1.02h1.02c.56,0,1.02.46,1.02,1.02s-.46,1.02-1.02,1.02h-1.02c0,1.13-.91,2.04-2.04,2.04ZM91.65,53.43c0-.56.46-1.02,1.02-1.02s1.02.46,1.02,1.02-.46,1.02-1.02,1.02-1.02-.46-1.02-1.02ZM98.8,58.53c.56,0,1.02.46,1.02,1.02s-.46,1.02-1.02,1.02-1.02-.46-1.02-1.02.46-1.02,1.02-1.02ZM97.09,62.81h2.04c.56,0,1.02.46,1.02,1.02s-.46,1.02-1.02,1.02h-2.04c-.56,0-1.02-.46-1.02-1.02s.46-1.02,1.02-1.02ZM99.82,57.51c0-.56.46-1.02,1.02-1.02s1.02.46,1.02,1.02-.46,1.02-1.02,1.02-1.02-.46-1.02-1.02ZM92.67,29.93c.56,0,1.02.46,1.02,1.02s-.46,1.02-1.02,1.02-1.02-.46-1.02-1.02.46-1.02,1.02-1.02ZM92.67,34.02c.56,0,1.02.46,1.02,1.02s-.46,1.02-1.02,1.02-1.02-.46-1.02-1.02.46-1.02,1.02-1.02ZM92.67,42.19c-.56,0-1.02-.46-1.02-1.02s.46-1.02,1.02-1.02,1.02.46,1.02,1.02-.46,1.02-1.02,1.02ZM93.69,45.25c0,.56-.46,1.02-1.02,1.02s-1.02-.46-1.02-1.02.46-1.02,1.02-1.02,1.02.46,1.02,1.02ZM87.56,40.15c0-1.13.91-2.04,2.04-2.04h1.02c.56,0,1.02.46,1.02,1.02s-.46,1.02-1.02,1.02h-1.02v2.04h1.02c.56,0,1.02.46,1.02,1.02s-.46,1.02-1.02,1.02h-1.02c-1.13,0-2.04-.91-2.04-2.04v-2.04ZM86.54,58.53c-.56,0-1.02-.46-1.02-1.02v-12.26c0-.56.46-1.02,1.02-1.02s1.02.46,1.02,1.02v1.02h2.04c1.13,0,2.04.91,2.04,2.04h4.09v-1.02c0-.56.46-1.02,1.02-1.02s1.02.46,1.02,1.02v1.02h1.02c.56,0,1.02.46,1.02,1.02s-.46,1.02-1.02,1.02h-7.15c-1.13,0-2.04-.91-2.04-2.04h-2.04v2.04c1.13,0,2.04.91,2.04,2.04s-.91,2.04-2.04,2.04v3.06c0,.56-.46,1.02-1.02,1.02ZM88.59,68.53h-2.04c-.56,0-1.02-.46-1.02-1.02s.46-1.02,1.02-1.02h2.04c.56,0,1.02.46,1.02,1.02s-.46,1.02-1.02,1.02ZM88.59,60.58c-.56,0-1.02-.46-1.02-1.02s.46-1.02,1.02-1.02,1.02.46,1.02,1.02-.46,1.02-1.02,1.02ZM92.67,81.4h-4.09c-.56,0-1.02-.46-1.02-1.02s.46-1.02,1.02-1.02h1.02v-1.02c0-.56.46-1.02,1.02-1.02s1.02.46,1.02,1.02v1.02h1.02c.56,0,1.02.46,1.02,1.02s-.46,1.02-1.02,1.02ZM94.71,79.35c-.56,0-1.02-.46-1.02-1.02s.46-1.02,1.02-1.02,1.02.46,1.02,1.02-.46,1.02-1.02,1.02ZM94.71,75.27h-1.02v1.02c0,.56-.46,1.02-1.02,1.02s-1.02-.46-1.02-1.02v-1.02c0-1.13.91-2.04,2.04-2.04h1.02c.56,0,1.02.46,1.02,1.02s-.46,1.02-1.02,1.02ZM102.17,80.49c-.56,0-1.02-.46-1.02-1.02s.46-1.02,1.02-1.02h1.02v-1.02c0-.56.46-1.02,1.02-1.02s1.02.46,1.02,1.02v6.13c0,.56-.46,1.02-1.02,1.02s-1.02-.46-1.02-1.02v-3.06h-1.02ZM103.2,72.05c0-.56.46-1.02,1.02-1.02s1.02.46,1.02,1.02-.46,1.02-1.02,1.02-1.02-.46-1.02-1.02ZM103.2,87.45c0-.56.46-1.02,1.02-1.02s1.02.46,1.02,1.02-.46,1.02-1.02,1.02-1.02-.46-1.02-1.02ZM103.91,113.88h-1.02v1.02c0,.56-.46,1.02-1.02,1.02s-1.02-.46-1.02-1.02v-1.02h-3.06c-.56,0-1.02-.46-1.02-1.02s.46-1.02,1.02-1.02h1.02v-1.02c0-.56.46-1.02,1.02-1.02s1.02.46,1.02,1.02v1.02h3.06c.56,0,1.02.46,1.02,1.02s-.46,1.02-1.02,1.02ZM104.22,103.94h-2.04c-.56,0-1.02-.46-1.02-1.02s.46-1.02,1.02-1.02h2.04c.56,0,1.02.46,1.02,1.02s-.46,1.02-1.02,1.02ZM105.24,93.7v1.02c0,.56-.46,1.02-1.02,1.02s-1.02-.46-1.02-1.02v-2.04c0-.56.46-1.02,1.02-1.02s1.02.46,1.02,1.02v1.02ZM105.27,64.34v4.09c0,1.13-.91,2.04-2.04,2.04h-2.04v2.04c1.13,0,2.04.91,2.04,2.04s-.91,2.04-2.04,2.04v1.02c0,.56-.46,1.02-1.02,1.02s-1.02-.46-1.02-1.02v-3.06c-1.13,0-2.04-.91-2.04-2.04h-1.02c-.56,0-1.02-.46-1.02-1.02s.46-1.02,1.02-1.02h3.06v-2.04c0-1.13.91-2.04,2.04-2.04,0-1.13.91-2.04,2.04-2.04v-1.02c0-.56.46-1.02,1.02-1.02s1.02.46,1.02,1.02v1.02ZM106.57,58.37c0,1.13-.91,2.04-2.04,2.04h-1.02c-.56,0-1.02-.46-1.02-1.02s.46-1.02,1.02-1.02h1.02v-2.04c0-1.13.91-2.04,2.04-2.04h1.02c.56,0,1.02.46,1.02,1.02s-.46,1.02-1.02,1.02h-1.02v2.04ZM106.57,93.11c0-.56.46-1.02,1.02-1.02s1.02.46,1.02,1.02-.46,1.02-1.02,1.02-1.02-.46-1.02-1.02ZM111.68,114.56c-.56,0-1.02-.46-1.02-1.02v-3.06h-2.04v5.11c0,.56-.46,1.02-1.02,1.02s-1.02-.46-1.02-1.02v-9.19c0-1.13.91-2.04,2.04-2.04v-1.02c0-.56.46-1.02,1.02-1.02s1.02.46,1.02,1.02v1.02h1.02c.56,0,1.02.46,1.02,1.02s-.46,1.02-1.02,1.02h-3.06v2.04h4.09c1.13,0,2.04.91,2.04,2.04s-.91,2.04-2.04,2.04v1.02c0,.56-.46,1.02-1.02,1.02ZM120.87,116.6h-7.15c-.56,0-1.02-.46-1.02-1.02s.46-1.02,1.02-1.02h7.15v-2.04h-3.06c-.56,0-1.02-.46-1.02-1.02s.46-1.02,1.02-1.02h3.06c1.13,0,2.04.91,2.04,2.04v2.04c0,1.13-.91,2.04-2.04,2.04ZM126.34,137.49c0,.56-.46,1.02-1.02,1.02s-1.02-.46-1.02-1.02v-1.02h-1.02c-.56,0-1.02-.46-1.02-1.02s.46-1.02,1.02-1.02h1.02c1.13,0,2.04.91,2.04,2.04v1.02ZM125.98,132.95c-.56,0-1.02-.46-1.02-1.02s.46-1.02,1.02-1.02,1.02.46,1.02,1.02-.46,1.02-1.02,1.02ZM128.02,128.86c-.56,0-1.02-.46-1.02-1.02s.46-1.02,1.02-1.02,1.02.46,1.02,1.02-.46,1.02-1.02,1.02ZM134.15,130.9h-1.02c0,1.13-.91,2.04-2.04,2.04h-1.02c-.56,0-1.02-.46-1.02-1.02s.46-1.02,1.02-1.02h1.02v-3.06c0-.56.46-1.02,1.02-1.02s1.02.46,1.02,1.02v1.02h1.02c.56,0,1.02.46,1.02,1.02s-.46,1.02-1.02,1.02ZM136.2,132.95c-.56,0-1.02-.46-1.02-1.02s.46-1.02,1.02-1.02,1.02.46,1.02,1.02-.46,1.02-1.02,1.02ZM138.24,130.9c-.56,0-1.02-.46-1.02-1.02s.46-1.02,1.02-1.02,1.02.46,1.02,1.02-.46,1.02-1.02,1.02ZM138.24,126.82h-4.09c-.56,0-1.02-.46-1.02-1.02s.46-1.02,1.02-1.02h1.02s2.04,0,2.04,0h1.02c.56,0,1.02.46,1.02,1.02s-.46,1.02-1.02,1.02ZM139.26,123.75c0-.56.46-1.02,1.02-1.02h1.02c0-1.13.91-2.04,2.04-2.04v-1.02c0-.56.46-1.02,1.02-1.02s1.02.46,1.02,1.02v1.02c0,1.13-.91,2.04-2.04,2.04,0,1.13-.91,2.04-2.04,2.04h0s-1.02,0-1.02,0c-.56,0-1.02-.46-1.02-1.02ZM141.3,138.51c-.56,0-1.02-.46-1.02-1.02s.46-1.02,1.02-1.02,1.02.46,1.02,1.02-.46,1.02-1.02,1.02ZM143.35,136.47c-.56,0-1.02-.46-1.02-1.02s.46-1.02,1.02-1.02,1.02.46,1.02,1.02-.46,1.02-1.02,1.02ZM156.63,130.9h-3.06v1.02c0,.56-.46,1.02-1.02,1.02s-1.02-.46-1.02-1.02v-1.02h-4.09v1.02c0,.56-.46,1.02-1.02,1.02s-1.02-.46-1.02-1.02v-1.02h-2.04c-1.13,0-2.04-.91-2.04-2.04s.91-2.04,2.04-2.04v-1.02c0-.56.46-1.02,1.02-1.02s1.02.46,1.02,1.02v1.02c1.13,0,2.04.91,2.04,2.04h9.19c.56,0,1.02.46,1.02,1.02s-.46,1.02-1.02,1.02ZM147.43,120.69v-1.02c0-.56.46-1.02,1.02-1.02s1.02.46,1.02,1.02v1.02h2.04v-1.02c0-.56.46-1.02,1.02-1.02s1.02.46,1.02,1.02v1.02c0,1.13-.91,2.04-2.04,2.04v2.04c0,1.13-.91,2.04-2.04,2.04h-1.02c-.56,0-1.02-.46-1.02-1.02s.46-1.02,1.02-1.02h1.02v-2.04c-1.13,0-2.04-.91-2.04-2.04ZM161.73,130.9c0,1.13-.91,2.04-2.04,2.04h-1.02c-.56,0-1.02-.46-1.02-1.02s.46-1.02,1.02-1.02h1.02v-1.02c0-.56.46-1.02,1.02-1.02s1.02.46,1.02,1.02v1.02ZM164.8,130.9c-.56,0-1.02-.46-1.02-1.02v-1.02h-1.02c-.56,0-1.02-.46-1.02-1.02s.46-1.02,1.02-1.02h4.09c.56,0,1.02.46,1.02,1.02s-.46,1.02-1.02,1.02h-1.02v1.02c0,.56-.46,1.02-1.02,1.02ZM168.89,132.95h-2.04c-.56,0-1.02-.46-1.02-1.02s.46-1.02,1.02-1.02h2.04c.56,0,1.02.46,1.02,1.02s-.46,1.02-1.02,1.02ZM171.95,128.86v1.02c0,.56-.46,1.02-1.02,1.02s-1.02-.46-1.02-1.02v-2.04c0-.56.46-1.02,1.02-1.02s1.02.46,1.02,1.02v1.02ZM171.95,124.77h-2.04v1.02c0,.56-.46,1.02-1.02,1.02s-1.02-.46-1.02-1.02v-1.02h-10.22s-1.02,0-1.02,0c-.56,0-1.02-.46-1.02-1.02s.46-1.02,1.02-1.02h7.15v-2.04c-1.13,0-2.04-.91-2.04-2.04v-2.04h-6.13v1.02c0,.56-.46,1.02-1.02,1.02s-1.02-.46-1.02-1.02v-1.02c-1.13,0-2.04-.91-2.04-2.04h-4.09v3.06c0,.56-.46,1.02-1.02,1.02s-1.02-.46-1.02-1.02v-7.15c0-1.13.91-2.04,2.04-2.04v-2.04c0-1.13.91-2.04,2.04-2.04v-1.02c0-.56.46-1.02,1.02-1.02s1.02.46,1.02,1.02v1.02c0,1.13-.91,2.04-2.04,2.04v2.04c1.13,0,2.04.91,2.04,2.04v2.04c1.13,0,2.04.91,2.04,2.04h8.17v-3.06c0-.56.46-1.02,1.02-1.02s1.02.46,1.02,1.02v3.06h2.04v-1.02c0-.56.46-1.02,1.02-1.02s1.02.46,1.02,1.02v1.02h2.04v-2.04h-1.02c-.56,0-1.02-.46-1.02-1.02s.46-1.02,1.02-1.02h1.02v-1.02c0-.56.46-1.02,1.02-1.02s1.02.46,1.02,1.02v1.02h3.06c.56,0,1.02.46,1.02,1.02s-.46,1.02-1.02,1.02h-3.06v2.04c1.13,0,2.04.91,2.04,2.04v2.04h1.02c.56,0,1.02.46,1.02,1.02s-.46,1.02-1.02,1.02h-1.02v2.04c0,1.13-.91,2.04-2.04,2.04ZM171.95,107.41c0-.56.46-1.02,1.02-1.02h2.04c.56,0,1.02.46,1.02,1.02s-.46,1.02-1.02,1.02h-2.04c-.56,0-1.02-.46-1.02-1.02ZM179.1,126.82h-4.09c-.56,0-1.02-.46-1.02-1.02s.46-1.02,1.02-1.02h1.02v-1.02c0-.56.46-1.02,1.02-1.02s1.02.46,1.02,1.02v1.02h1.02c.56,0,1.02.46,1.02,1.02s-.46,1.02-1.02,1.02ZM181.14,124.77c-.56,0-1.02-.46-1.02-1.02s.46-1.02,1.02-1.02,1.02.46,1.02,1.02-.46,1.02-1.02,1.02ZM181.14,120.69h-1.02v1.02c0,.56-.46,1.02-1.02,1.02s-1.02-.46-1.02-1.02v-1.02c0-1.13.91-2.04,2.04-2.04h1.02c.56,0,1.02.46,1.02,1.02s-.46,1.02-1.02,1.02ZM181.14,112.52h-1.02v2.04c0,1.13-.91,2.04-2.04,2.04h-1.02c-.56,0-1.02-.46-1.02-1.02s.46-1.02,1.02-1.02h1.02v-2.04c0-1.13.91-2.04,2.04-2.04h1.02c.56,0,1.02.46,1.02,1.02s-.46,1.02-1.02,1.02ZM181.14,104.34h-5.11c-1.13,0-2.04-.91-2.04-2.04v-2.04h-2.04c0,1.13-.91,2.04-2.04,2.04s-2.04-.91-2.04-2.04h-1.02c-.56,0-1.02-.46-1.02-1.02s.46-1.02,1.02-1.02h3.06c0-1.13.91-2.04,2.04-2.04v-1.02c0-.56.46-1.02,1.02-1.02s1.02.46,1.02,1.02v3.06h2.04c1.13,0,2.04.91,2.04,2.04,1.13,0,2.04.91,2.04,2.04h1.02c.56,0,1.02.46,1.02,1.02s-.46,1.02-1.02,1.02ZM181.14,96.17h-1.02v1.02c0,.56-.46,1.02-1.02,1.02s-1.02-.46-1.02-1.02v-1.02c0-1.13.91-2.04,2.04-2.04h1.02c.56,0,1.02.46,1.02,1.02s-.46,1.02-1.02,1.02ZM182.17,89.02c0,.56-.46,1.02-1.02,1.02s-1.02-.46-1.02-1.02v-1.02h-1.02c-.56,0-1.02-.46-1.02-1.02s.46-1.02,1.02-1.02h1.02c1.13,0,2.04.91,2.04,2.04v1.02ZM182.17,75.74v5.11c0,.56-.46,1.02-1.02,1.02s-1.02-.46-1.02-1.02v-1.02h-1.02c-.56,0-1.02-.46-1.02-1.02s.46-1.02,1.02-1.02h1.02v-3.06c0-.56.46-1.02,1.02-1.02s1.02.46,1.02,1.02v1.02ZM181.58,56.41h-3.06c-.56,0-1.02-.46-1.02-1.02s.46-1.02,1.02-1.02h3.06c0-1.13.91-2.04,2.04-2.04s2.04.91,2.04,2.04h2.04v-2.04c-1.13,0-2.04-.91-2.04-2.04v-7.15c0-.56.46-1.02,1.02-1.02s1.02.46,1.02,1.02v1.02h1.02c.56,0,1.02.46,1.02,1.02s-.46,1.02-1.02,1.02h-1.02v4.09c1.13,0,2.04.91,2.04,2.04v2.04h1.02c.56,0,1.02.46,1.02,1.02s-.46,1.02-1.02,1.02h-9.19ZM183.9,94.13c-.56,0-1.02-.46-1.02-1.02s.46-1.02,1.02-1.02,1.02.46,1.02,1.02-.46,1.02-1.02,1.02ZM184.92,96.17v-1.02c0-.56.46-1.02,1.02-1.02s1.02.46,1.02,1.02v1.02c0,1.13-.91,2.04-2.04,2.04v1.02c0,.56-.46,1.02-1.02,1.02s-1.02-.46-1.02-1.02v-1.02c0-1.13.91-2.04,2.04-2.04ZM189,119.1c0,.56-.46,1.02-1.02,1.02s-1.02-.46-1.02-1.02.46-1.02,1.02-1.02,1.02.46,1.02,1.02ZM189,112.52v1.02c0,.56-.46,1.02-1.02,1.02s-1.02-.46-1.02-1.02v-3.06h-2.04v5.11c0,.56-.46,1.02-1.02,1.02s-1.02-.46-1.02-1.02v-9.19c0-1.13.91-2.04,2.04-2.04v-1.02c0-.56.46-1.02,1.02-1.02s1.02.46,1.02,1.02v1.02h1.02c.56,0,1.02.46,1.02,1.02s-.46,1.02-1.02,1.02h-3.06v2.04h4.09c1.13,0,2.04.91,2.04,2.04s-.91,2.04-2.04,2.04ZM189,98.21h1.02c.56,0,1.02.46,1.02,1.02s-.46,1.02-1.02,1.02h-1.02v1.02c0,.56-.46,1.02-1.02,1.02s-1.02-.46-1.02-1.02v-1.02c0-1.13.91-2.04,2.04-2.04ZM187.98,90.04h-2.04c-.56,0-1.02-.46-1.02-1.02s.46-1.02,1.02-1.02h2.04c.56,0,1.02.46,1.02,1.02s-.46,1.02-1.02,1.02ZM193.09,86.98c0,.56-.46,1.02-1.02,1.02s-1.02-.46-1.02-1.02v-1.02c-1.13,0-2.04-.91-2.04-2.04v-1.02c0-.56.46-1.02,1.02-1.02s1.02.46,1.02,1.02v1.02c1.13,0,2.04.91,2.04,2.04v1.02ZM196.15,83.91h-2.04c-.56,0-1.02-.46-1.02-1.02s.46-1.02,1.02-1.02h2.04c.56,0,1.02.46,1.02,1.02s-.46,1.02-1.02,1.02ZM197.18,79.83h-3.06c-.56,0-1.02-.46-1.02-1.02s.46-1.02,1.02-1.02h3.06v-2.04h-4.09v1.02c0,.56-.46,1.02-1.02,1.02s-1.02-.46-1.02-1.02v-1.02h-2.04v4.09c0,1.13-.91,2.04-2.04,2.04v2.04c0,1.13-.91,2.04-2.04,2.04v1.02c0,.56-.46,1.02-1.02,1.02s-1.02-.46-1.02-1.02v-1.02c0-1.13.91-2.04,2.04-2.04v-2.04h-1.02c-.56,0-1.02-.46-1.02-1.02s.46-1.02,1.02-1.02h1.02c0-1.13.91-2.04,2.04-2.04v-2.04h-1.02c-.56,0-1.02-.46-1.02-1.02s.46-1.02,1.02-1.02h11.24c1.13,0,2.04.91,2.04,2.04v2.04c0,1.13-.91,2.04-2.04,2.04ZM205.35,90.72v1.02c0,.56-.46,1.02-1.02,1.02s-1.02-.46-1.02-1.02v-2.04c0-.56.46-1.02,1.02-1.02s1.02.46,1.02,1.02v1.02ZM205.35,84.93c0,.56-.46,1.02-1.02,1.02s-1.02-.46-1.02-1.02v-1.02h-2.04c-1.13,0-2.04-.91-2.04-2.04v-1.02c0-.56.46-1.02,1.02-1.02s1.02.46,1.02,1.02v1.02h2.04c1.13,0,2.04.91,2.04,2.04v1.02ZM206.37,81.87c-.56,0-1.02-.46-1.02-1.02s.46-1.02,1.02-1.02,1.02.46,1.02,1.02-.46,1.02-1.02,1.02ZM206.37,73.7c-.56,0-1.02-.46-1.02-1.02s.46-1.02,1.02-1.02,1.02.46,1.02,1.02-.46,1.02-1.02,1.02Z"/>
      </g>
    </g>
  </g>
</svg>